<svg width="720" height="550" viewBox="0 0 720 550" fill="none" xmlns="http://www.w3.org/2000/svg">
<path d="M-247.672 523.96C-150.258 529.359 0 550 0 550C0 550 150.248 529.253 247.672 523.96C352.906 518.242 412.846 516.319 517.86 523.96C597.596 529.761 720 550 720 550V28.447C720 28.447 581.489 10.8156 491.842 6.12659C387.951 0.692605 328.561 -3.10513 225.156 6.12659C135.64 14.1184 0 44.0713 0 44.0713C0 44.0713 -149.484 13.9756 -247.672 6.12659C-357.051 -2.61692 -419.831 -1.44653 -529.368 6.12659C-604.408 11.3147 -720 28.447 -720 28.447V550C-720 550 -604.622 530.008 -529.368 523.96C-419.996 515.169 -357.376 517.879 -247.672 523.96Z" fill="#EFD6FF"/>
</svg>
