<svg width="726" height="550" viewBox="0 0 726 550" fill="none" xmlns="http://www.w3.org/2000/svg">
<path d="M472.328 523.96C569.742 529.359 720 550 720 550C720 550 870.248 529.253 967.672 523.96C1072.91 518.242 1132.85 516.319 1237.86 523.96C1317.6 529.761 1440 550 1440 550V28.447C1440 28.447 1301.49 10.8156 1211.84 6.12659C1107.95 0.692605 1048.56 -3.10513 945.156 6.12659C855.64 14.1184 720 44.0713 720 44.0713C720 44.0713 570.516 13.9756 472.328 6.12659C362.949 -2.61692 300.169 -1.44653 190.632 6.12659C115.592 11.3147 0 28.447 0 28.447V550C0 550 115.378 530.008 190.632 523.96C300.004 515.169 362.624 517.879 472.328 523.96Z" fill="#EFD6FF"/>
</svg>
