<svg width="1440" height="666" viewBox="0 0 1440 666" fill="none" xmlns="http://www.w3.org/2000/svg">
<path d="M472.328 634.467C569.742 641.006 720 666 720 666C720 666 870.248 640.878 967.672 634.467C1072.91 627.543 1132.85 625.216 1237.86 634.467C1317.6 641.492 1440 666 1440 666V34.4467C1440 34.4467 1301.49 13.0967 1211.84 7.41874C1107.95 0.838681 1048.56 -3.76003 945.156 7.41874C855.64 17.0961 720 53.3663 720 53.3663C720 53.3663 570.516 16.9231 472.328 7.41874C362.949 -3.16886 300.169 -1.75162 190.632 7.41874C115.592 13.7011 0 34.4467 0 34.4467V666C0 666 115.378 641.792 190.632 634.467C300.004 623.823 362.624 627.104 472.328 634.467Z" fill="#FFFFE8"/>
</svg>
