<svg width="202" height="200" viewBox="0 0 202 200" fill="none" xmlns="http://www.w3.org/2000/svg">
<path d="M86.1907 169.216C87.0771 170.041 87.5712 170.951 87.673 171.946C87.7726 172.948 87.6459 174.086 87.2929 175.358L85.752 180.912C85.037 183.489 83.8807 185.061 82.283 185.628C80.9299 186.104 79.1727 186.043 77.0115 185.443C74.8422 184.841 73.3519 184.103 72.5406 183.228C71.7272 182.361 71.3757 181.253 71.4863 179.905C71.5305 179.303 71.6623 178.606 71.8818 177.815L74.2761 178.255C73.9457 179.446 73.8248 180.277 73.9133 180.75C73.9995 181.23 74.1197 181.589 74.2738 181.825C74.4197 182.058 74.703 182.304 75.1235 182.561C75.5417 182.826 76.2361 183.094 77.2066 183.363C78.1771 183.632 78.9577 183.779 79.5485 183.802C80.137 183.833 80.6689 183.753 81.144 183.56C82.055 183.189 82.7254 182.228 83.1553 180.679L84.927 174.293C85.3524 172.76 85.2582 171.627 84.6446 170.895C84.0287 170.171 82.8929 169.579 81.2374 169.119C79.5736 168.658 78.4591 168.559 77.8938 168.824C77.3285 169.089 76.8887 169.582 76.5746 170.303C76.4043 170.695 76.24 171.176 76.0816 171.747L73.7451 171.099C74.2384 169.321 74.8414 168.144 75.5544 167.569C76.8715 166.494 78.8553 166.324 81.5058 167.06C83.7323 167.677 85.2939 168.396 86.1907 169.216Z" fill="black"/>
<path d="M63.1294 158.977C63.8053 159.38 64.3273 159.761 64.6954 160.118C65.0635 160.476 65.3265 160.894 65.4844 161.373C65.7783 162.267 65.4351 163.536 64.455 165.179L56.993 177.683L54.9435 176.46L62.4184 163.934C62.9736 163.004 63.1976 162.314 63.0906 161.866C62.9836 161.418 62.4976 160.936 61.6328 160.419L61.273 160.205L62.5407 158.625L63.1294 158.977Z" fill="black"/>
<path d="M55.4018 153.333L46.4476 163.378L44.6659 161.79L53.6201 151.744L55.4018 153.333ZM44.8341 165.188L43.1869 167.036L41.4052 165.448L43.0525 163.6L44.8341 165.188Z" fill="black"/>
<path d="M46.2509 134.996L41.495 138.274C41.9481 138.424 42.4068 138.71 42.8711 139.13C43.3424 139.545 43.7317 139.976 44.0391 140.422C45.0047 141.822 45.4428 143.129 45.3537 144.342C45.2576 145.559 44.6694 146.54 43.5894 147.285L39.262 150.268C38.1192 151.056 36.9681 151.309 35.8087 151.029C34.6493 150.749 33.5845 149.905 32.6142 148.498C32.2347 147.947 31.9665 147.305 31.8095 146.57C31.6456 145.84 31.6407 145.304 31.7951 144.961L30.9066 145.573L29.552 143.608L44.8963 133.031L46.2509 134.996ZM42.4475 141.334C42.0008 140.686 41.5166 140.192 40.9948 139.853C40.4613 139.511 40.0914 139.355 39.8853 139.384L33.5197 143.772C33.1713 144.012 33.0112 144.436 33.0394 145.044C33.0676 145.651 33.3604 146.359 33.9176 147.167C34.4748 147.976 35.0805 148.504 35.7346 148.752C36.3888 149 37.0434 148.898 37.6984 148.447L42.5483 145.104C43.6772 144.325 43.6436 143.069 42.4475 141.334Z" fill="black"/>
<path d="M35.0045 122.612C35.6998 124.797 35.3669 126.431 34.0056 127.512C33.6159 127.823 33.1589 128.061 32.6347 128.228L23.3193 131.192L22.5958 128.917L31.9233 125.95C32.5524 125.75 32.9752 125.362 33.1919 124.787C33.398 124.206 33.3548 123.456 33.0623 122.537C32.7698 121.617 32.3066 120.943 31.6728 120.514C31.0284 120.08 30.4077 119.957 29.8109 120.147L20.7254 123.038L20.0018 120.763L32.8256 116.684L33.4722 118.716L31.9401 119.47C33.416 119.782 34.4375 120.829 35.0045 122.612Z" fill="black"/>
<path d="M31.42 101.933C31.4584 103.904 31.0758 105.338 30.2722 106.234C29.4685 107.13 28.212 107.595 26.5027 107.628L21.819 107.72C20.4905 107.746 19.4366 107.313 18.6574 106.423C17.8782 105.532 17.4708 104.173 17.4351 102.345C17.3993 100.509 17.7282 99.1396 18.4217 98.2372C19.1065 97.3266 20.1047 96.8584 21.4163 96.8329L24.615 96.7705L24.7807 105.275L26.672 105.238C27.7889 105.216 28.5631 104.977 28.9944 104.52C29.4172 104.063 29.6172 103.25 29.5944 102.083C29.5717 100.915 29.5334 100.255 29.4797 100.104C29.4259 99.9528 29.3637 99.7974 29.2928 99.6379C29.222 99.4785 29.1395 99.37 29.0452 99.3126C28.9508 99.2467 28.8096 99.1648 28.6214 99.0669C28.4246 98.9607 28.0508 98.8876 27.4997 98.8475L27.4587 96.7405C28.2642 96.8094 28.9143 96.9407 29.4091 97.1342C29.9037 97.3193 30.3033 97.6247 30.6078 98.0505C30.9038 98.4679 31.1084 98.9761 31.2216 99.5749C31.3347 100.165 31.4009 100.951 31.42 101.933ZM23.1687 105.306L23.048 99.1121L21.2075 99.1479C20.4459 99.1628 19.9264 99.4353 19.6489 99.9656C19.3713 100.487 19.2423 101.252 19.2619 102.259C19.2815 103.266 19.4701 104.037 19.8276 104.571C20.1849 105.098 20.7613 105.353 21.5567 105.338L23.1687 105.306Z" fill="black"/>
<path d="M39.9806 78.4135L23.1023 70.5109L23.899 68.8093L24.9372 68.987C24.788 68.4873 24.7459 67.8788 24.8107 67.1615C24.8678 66.4407 25.0507 65.7506 25.3594 65.0915C26.0664 63.5814 26.9708 62.6078 28.0727 62.1705C29.1782 61.7255 30.3403 61.7884 31.559 62.359L35.9856 64.4315C37.2426 65.0201 38.0573 65.9248 38.4295 67.1458C38.8017 68.3667 38.6253 69.7514 37.9004 71.2997C37.398 72.3728 36.7347 73.2304 35.9107 73.8726L40.9926 76.252L39.9806 78.4135ZM34.2436 73.092C35.043 72.5224 35.667 71.7586 36.1156 70.8005C36.5642 69.8423 36.7074 69.0076 36.5452 68.2961C36.3865 67.577 35.9393 67.0452 35.2035 66.7007L30.3745 64.4398C29.6694 64.1096 29.0031 64.1154 28.3758 64.4572C27.7521 64.7913 27.2644 65.3339 26.9127 66.0851C26.5646 66.8286 26.42 67.5366 26.479 68.209C26.5416 68.8738 26.6578 69.3441 26.8277 69.6199L34.2436 73.092Z" fill="black"/>
<path d="M47.8588 55.753C46.9538 56.7716 45.9759 57.318 44.9251 57.3921C43.868 57.4605 42.9282 57.1293 42.1057 56.3986C41.6375 55.9826 41.3355 55.5388 41.1997 55.0672C40.9212 54.1065 41.3737 52.3801 42.5574 49.8882C43.2585 48.4619 43.5711 47.5622 43.4951 47.189C43.4247 46.8095 43.3347 46.554 43.225 46.4226C43.109 46.2856 42.9086 46.0906 42.6239 45.8376C42.3392 45.5847 41.9568 45.4544 41.4768 45.4468C41.0023 45.4328 40.4222 45.8118 39.7364 46.5837C38.7695 47.672 38.3853 48.525 38.5836 49.1428C38.6863 49.4604 38.9212 49.7823 39.2881 50.1083L39.7342 50.5046L38.208 52.2224L37.7525 51.8177C36.7718 50.9464 36.34 49.9797 36.4571 48.9177C36.5798 47.8493 37.2202 46.6634 38.3782 45.36C39.5362 44.0566 40.6599 43.3908 41.7493 43.3624C42.8324 43.3284 43.9212 43.7976 45.0158 44.7701L49.3056 48.5813C49.8308 49.0479 50.2315 49.285 50.5077 49.2927C50.7776 49.2947 51.1065 49.0775 51.4943 48.6409L52.6755 50.0639L52.3551 50.4245C51.7929 51.0573 51.2539 51.4218 50.7381 51.5182C50.2159 51.609 49.6254 51.509 48.9668 51.2182C49.2848 52.4404 49.2162 53.5116 48.7609 54.4317C48.5474 54.876 48.2467 55.3164 47.8588 55.753ZM44.001 50.7292C43.4622 51.8581 43.1679 52.7118 43.1181 53.2903C43.074 53.8624 43.2892 54.3593 43.7637 54.7809C44.2319 55.1969 44.7268 55.3535 45.2483 55.2507C45.7754 55.1416 46.2385 54.8625 46.6376 54.4133C47.0423 53.9577 47.3508 53.4959 47.5629 53.0277C47.7687 52.5539 47.8871 52.0703 47.9179 51.5769C47.948 51.0716 47.8537 50.6425 47.635 50.2897L44.7309 47.7095C44.7824 48.5818 44.5391 49.5883 44.001 50.7292Z" fill="black"/>
<path d="M59.2722 44.639L51.7732 33.4651L53.755 32.1351L54.8161 33.7163C54.6069 32.8578 54.9573 31.899 55.8671 30.8399C56.3372 30.2798 56.8909 29.791 57.5281 29.3735L58.6038 31.1131C57.6481 31.7546 56.9005 32.5315 56.361 33.4439C55.8216 34.3564 55.7028 35.0375 56.0047 35.4873L61.254 43.309L59.2722 44.639Z" fill="black"/>
<path d="M76.2254 35.7976C74.9398 36.2492 73.8196 36.2524 72.8649 35.8073C71.9074 35.3542 71.2464 34.6086 70.8818 33.5705C70.6742 32.9796 70.6255 32.445 70.7357 31.9668C70.9583 30.9915 72.1917 29.7017 74.4359 28.0972C75.741 27.1903 76.4509 26.5552 76.5655 26.192C76.6881 25.826 76.7334 25.559 76.7012 25.3908C76.6663 25.2147 76.5857 24.947 76.4595 24.5877C76.3333 24.2283 76.0622 23.9289 75.6461 23.6893C75.238 23.4469 74.5469 23.4967 73.5727 23.8389C72.1992 24.3213 71.4493 24.8807 71.323 25.5171C71.2586 25.8447 71.3078 26.2401 71.4705 26.7032L71.6682 27.2662L69.5002 28.0276L69.2982 27.4527C68.8635 26.215 68.955 25.1602 69.5728 24.2884C70.1985 23.4138 71.3339 22.6876 72.9789 22.1099C74.6239 21.5321 75.9295 21.4951 76.8959 21.999C77.8594 22.4948 78.5838 23.4334 79.069 24.8149L80.9705 30.229C81.2033 30.8918 81.4386 31.2935 81.6764 31.4343C81.9114 31.567 82.3044 31.5366 82.8554 31.3431L83.1976 33.1605L82.7425 33.3204C81.9439 33.6008 81.2957 33.658 80.7979 33.492C80.2972 33.318 79.8295 32.9441 79.3947 32.3702C79.0797 33.5931 78.4999 34.4965 77.6554 35.0801C77.2531 35.3649 76.7764 35.6041 76.2254 35.7976ZM75.29 29.533C74.2711 30.2586 73.5995 30.8623 73.2753 31.3439C72.9591 31.8228 72.9061 32.3616 73.1165 32.9605C73.324 33.5515 73.6807 33.9285 74.1865 34.0917C74.7004 34.2521 75.2408 34.2328 75.8077 34.0337C76.3827 33.8317 76.8765 33.5776 77.2891 33.2712C77.699 32.9568 78.0371 32.5913 78.3035 32.1748C78.575 31.7476 78.7008 31.3266 78.6808 30.9121L77.3934 27.2468C77.0153 28.0345 76.3141 28.7965 75.29 29.533Z" fill="black"/>
<path d="M104.592 31.1968L105.575 19.5841L103.335 19.3946L103.488 17.5982L105.727 17.7878L105.899 15.7511C106.004 14.5114 106.418 13.6334 107.141 13.117C107.874 12.5929 108.935 12.3898 110.327 12.5075L111.832 12.6349L111.842 14.3303L110.374 14.2061C109.084 14.0968 108.391 14.6031 108.296 15.7247L108.105 17.9891L111.356 18.2642L111.204 20.0605L107.953 19.7854L106.97 31.3981L104.592 31.1968Z" fill="black"/>
<path d="M122.072 34.7898C120.787 34.3383 119.91 33.6404 119.444 32.696C118.98 31.7437 118.93 30.7485 119.295 29.7104C119.502 29.1195 119.799 28.6719 120.184 28.3675C120.967 27.7457 122.736 27.5103 125.491 27.6615C127.076 27.7699 128.027 27.7182 128.344 27.5064C128.669 27.2975 128.871 27.1174 128.951 26.9661C129.034 26.8068 129.138 26.5475 129.265 26.1882C129.391 25.8288 129.366 25.4256 129.192 24.9784C129.025 24.5341 128.454 24.1408 127.48 23.7987C126.106 23.3163 125.171 23.2839 124.675 23.7016C124.42 23.917 124.211 24.2563 124.048 24.7194L123.851 25.2824L121.683 24.5209L121.885 23.946C122.319 22.7083 123.05 21.9424 124.077 21.6483C125.113 21.3571 126.453 21.5003 128.098 22.0781C129.743 22.6558 130.785 23.4434 131.224 24.4408C131.666 25.4303 131.644 26.6157 131.159 27.9972L129.257 33.4112C129.025 34.074 128.957 34.5347 129.055 34.7932C129.155 35.0438 129.481 35.2658 130.032 35.4593L129.162 37.0916L128.707 36.9317C127.909 36.6513 127.367 36.2906 127.082 35.8497C126.8 35.4009 126.669 34.8166 126.689 34.0969C125.678 34.8543 124.661 35.1967 123.637 35.124C123.145 35.0948 122.623 34.9834 122.072 34.7898ZM125.26 29.3161C124.011 29.2452 123.109 29.2963 122.555 29.4695C122.009 29.6454 121.63 30.0329 121.42 30.6318C121.213 31.2227 121.255 31.74 121.548 32.1837C121.849 32.6301 122.282 32.9529 122.849 33.1521C123.424 33.354 123.969 33.4644 124.482 33.4834C124.999 33.4943 125.491 33.4205 125.959 33.2621C126.438 33.0984 126.8 32.8486 127.043 32.5125L128.331 28.8473C127.543 29.2255 126.519 29.3817 125.26 29.3161Z" fill="black"/>
<path d="M136.212 40.7537L137.065 39.5216L148.266 34.6427L143.16 31.111L144.056 29.8164L151.229 34.778L150.398 35.9787L139.144 40.8673L144.563 44.6157L143.667 45.9103L136.212 40.7537Z" fill="black"/>
<path d="M153.557 56.0727C152.289 54.5622 151.686 53.2059 151.749 52.0039C151.812 50.8019 152.499 49.6514 153.808 48.5523L157.396 45.5407C158.414 44.6865 159.506 44.3613 160.672 44.5653C161.837 44.7693 163.008 45.5714 164.183 46.9717C165.364 48.3784 165.967 49.6507 165.994 50.7884C166.033 51.9272 165.55 52.9183 164.545 53.7617L162.094 55.8184L156.626 49.3031L155.177 50.5192C154.321 51.2374 153.869 51.9098 153.82 52.5363C153.778 53.1574 154.133 53.9153 154.883 54.8099C155.634 55.7045 156.078 56.1938 156.215 56.2779C156.352 56.3619 156.498 56.4438 156.653 56.5234C156.808 56.6031 156.941 56.6357 157.05 56.6212C157.165 56.6132 157.326 56.5882 157.534 56.5463C157.754 56.5055 158.091 56.3277 158.545 56.0129L159.9 57.6271C159.229 58.0792 158.641 58.3852 158.134 58.5452C157.633 58.7117 157.131 58.7248 156.626 58.5846C156.134 58.4455 155.655 58.1784 155.191 57.7834C154.733 57.3949 154.188 56.8247 153.557 56.0727ZM157.861 48.2666L161.844 53.012L163.254 51.8286C163.837 51.3389 164.071 50.8006 163.954 50.2137C163.842 49.6332 163.463 48.9573 162.815 48.1858C162.168 47.4144 161.537 46.9327 160.923 46.7409C160.314 46.5556 159.705 46.7187 159.096 47.2301L157.861 48.2666Z" fill="black"/>
<path d="M161.926 67.8355L174.073 62.0436L175.1 64.198L173.382 65.0176C174.261 64.9356 175.159 65.4219 176.074 66.4763C176.56 67.0229 176.963 67.6419 177.283 68.3331L175.405 69.144C174.91 68.105 174.25 67.2523 173.426 66.5857C172.602 65.9191 171.945 65.7024 171.456 65.9355L162.954 69.9898L161.926 67.8355Z" fill="black"/>
<path d="M164.764 93.9156L183.398 93.6231L183.427 95.5018L182.416 95.797C182.769 96.1808 183.074 96.7093 183.33 97.3825C183.595 98.0555 183.732 98.7559 183.744 99.4837C183.77 101.151 183.384 102.422 182.585 103.298C181.786 104.183 180.714 104.635 179.368 104.656L174.481 104.733C173.094 104.755 171.965 104.299 171.095 103.364C170.226 102.43 169.777 101.108 169.751 99.3986C169.732 98.2138 169.952 97.1523 170.412 96.214L164.801 96.302L164.764 93.9156ZM172.252 96.1851C171.783 97.0474 171.557 98.0074 171.574 99.0652C171.59 100.123 171.827 100.936 172.285 101.505C172.743 102.081 173.378 102.363 174.19 102.351L179.521 102.267C180.3 102.255 180.896 101.958 181.31 101.376C181.725 100.802 181.925 100.101 181.912 99.2712C181.899 98.4503 181.719 97.7506 181.371 97.172C181.024 96.6018 180.713 96.23 180.44 96.0566L172.252 96.1851Z" fill="black"/>
<path d="M167.208 119.18C167.74 117.281 168.519 116.018 169.547 115.391C170.575 114.765 171.912 114.682 173.558 115.143L178.07 116.405C179.349 116.763 180.234 117.481 180.723 118.558C181.213 119.635 181.211 121.054 180.719 122.815C180.224 124.583 179.514 125.8 178.59 126.464C177.672 127.139 176.581 127.299 175.318 126.946L172.237 126.084L174.529 117.893L172.707 117.383C171.631 117.082 170.821 117.088 170.276 117.401C169.74 117.717 169.314 118.437 169 119.562C168.685 120.687 168.532 121.33 168.539 121.49C168.547 121.65 168.562 121.817 168.584 121.99C168.606 122.163 168.654 122.291 168.727 122.373C168.799 122.463 168.91 122.582 169.062 122.73C169.22 122.889 169.557 123.067 170.073 123.264L169.505 125.293C168.754 124.995 168.169 124.682 167.751 124.354C167.331 124.034 167.036 123.627 166.867 123.131C166.704 122.646 166.655 122.101 166.719 121.495C166.781 120.897 166.944 120.125 167.208 119.18ZM176.082 118.327L174.412 124.293L176.185 124.789C176.919 124.994 177.495 124.883 177.913 124.455C178.329 124.036 178.673 123.341 178.945 122.371C179.216 121.401 179.258 120.609 179.069 119.993C178.879 119.386 178.4 118.976 177.634 118.761L176.082 118.327Z" fill="black"/>
<path d="M171.254 144.411C170.677 145.329 170.004 146.08 169.236 146.667L174.244 149.816L172.974 151.836L156.788 141.659L157.653 140.284L158.615 140.423C158.563 139.901 158.621 139.293 158.788 138.598C158.955 137.903 159.214 137.276 159.566 136.717C160.543 135.162 161.606 134.236 162.753 133.938C163.903 133.651 165.066 133.877 166.241 134.616L170.54 137.319C171.722 138.062 172.39 139.027 172.544 140.214C172.697 141.4 172.267 142.799 171.254 144.411ZM164.82 136.542C164.139 136.114 163.469 136.027 162.809 136.282C162.144 136.544 161.607 137.001 161.197 137.653C160.467 138.814 160.098 139.901 160.09 140.916L167.645 145.667C168.37 145.213 169.026 144.52 169.611 143.589C170.823 141.661 170.784 140.292 169.495 139.481L164.82 136.542Z" fill="black"/>
<path d="M149.94 149.45L159.31 159.109L157.597 160.771L148.227 151.112L149.94 149.45ZM160.999 160.849L162.723 162.626L161.009 164.288L159.286 162.511L160.999 160.849Z" fill="black"/>
<path d="M143.127 172.026C142.192 172.575 141.249 172.932 140.297 173.099L143.293 178.201L141.235 179.409L131.553 162.923L132.954 162.1L133.744 162.667C133.938 162.179 134.27 161.666 134.738 161.126C135.206 160.586 135.725 160.149 136.294 159.815C137.878 158.885 139.247 158.551 140.403 158.815C141.556 159.09 142.484 159.826 143.187 161.023L145.758 165.402C146.466 166.606 146.614 167.77 146.204 168.894C145.795 170.018 144.769 171.062 143.127 172.026ZM141.039 162.078C140.632 161.385 140.076 160.999 139.373 160.921C138.663 160.848 137.975 161.006 137.311 161.396C136.129 162.09 135.3 162.886 134.826 163.783L139.345 171.479C140.198 171.41 141.099 171.097 142.048 170.54C144.011 169.387 144.607 168.154 143.835 166.84L141.039 162.078Z" fill="black"/>
<path d="M121.312 170.895C120.953 169.441 119.742 168.969 117.679 169.479C115.617 169.989 114.766 170.971 115.126 172.425L116.525 178.082C116.887 179.544 118.099 180.02 120.161 179.51C122.223 179 123.073 178.014 122.711 176.552L121.312 170.895ZM112.858 173.195C112.54 171.914 112.729 170.79 113.423 169.825C114.111 168.87 115.388 168.162 117.253 167.701C119.118 167.24 120.577 167.271 121.631 167.795C122.677 168.321 123.359 169.229 123.678 170.519L124.98 175.781C125.299 177.071 125.118 178.192 124.438 179.145C123.753 180.108 122.477 180.821 120.612 181.282C118.747 181.743 117.287 181.708 116.231 181.176C115.167 180.645 114.476 179.739 114.159 178.458L112.858 173.195Z" fill="black"/>
</svg>
