<svg width="85" height="81" viewBox="0 0 85 81" fill="none" xmlns="http://www.w3.org/2000/svg">
<rect width="85" height="20" fill="#AB6AD3"/>
<path fill-rule="evenodd" clip-rule="evenodd" d="M78 20H8V80.8323L43 52L78 80.8323V20Z" fill="#FFFFE8"/>
<path d="M12.8203 11.5469V16H11.3203V4.625H15.5156C16.7604 4.625 17.7344 4.94271 18.4375 5.57812C19.1458 6.21354 19.5 7.05469 19.5 8.10156C19.5 9.20573 19.1536 10.0573 18.4609 10.6562C17.7734 11.25 16.7865 11.5469 15.5 11.5469H12.8203ZM12.8203 10.3203H15.5156C16.3177 10.3203 16.9323 10.1328 17.3594 9.75781C17.7865 9.3776 18 8.83073 18 8.11719C18 7.4401 17.7865 6.89844 17.3594 6.49219C16.9323 6.08594 16.3464 5.875 15.6016 5.85938H12.8203V10.3203ZM27.8438 10.7422H22.9141V14.7734H28.6406V16H21.4141V4.625H28.5625V5.85938H22.9141V9.51562H27.8438V10.7422ZM30.5078 16V4.625H33.7188C34.7083 4.625 35.5833 4.84375 36.3438 5.28125C37.1042 5.71875 37.6901 6.34115 38.1016 7.14844C38.5182 7.95573 38.7292 8.88281 38.7344 9.92969V10.6562C38.7344 11.7292 38.526 12.6693 38.1094 13.4766C37.6979 14.2839 37.1068 14.9036 36.3359 15.3359C35.5703 15.7682 34.6771 15.9896 33.6562 16H30.5078ZM32.0078 5.85938V14.7734H33.5859C34.7422 14.7734 35.6406 14.4141 36.2812 13.6953C36.9271 12.9766 37.25 11.9531 37.25 10.625V9.96094C37.25 8.66927 36.9453 7.66667 36.3359 6.95312C35.7318 6.23438 34.8724 5.86979 33.7578 5.85938H32.0078ZM42.6172 16H41.1172V4.625H42.6172V16ZM45.3672 16V4.625H48.5781C49.5677 4.625 50.4427 4.84375 51.2031 5.28125C51.9635 5.71875 52.5495 6.34115 52.9609 7.14844C53.3776 7.95573 53.5885 8.88281 53.5938 9.92969V10.6562C53.5938 11.7292 53.3854 12.6693 52.9688 13.4766C52.5573 14.2839 51.9661 14.9036 51.1953 15.3359C50.4297 15.7682 49.5365 15.9896 48.5156 16H45.3672ZM46.8672 5.85938V14.7734H48.4453C49.6016 14.7734 50.5 14.4141 51.1406 13.6953C51.7865 12.9766 52.1094 11.9531 52.1094 10.625V9.96094C52.1094 8.66927 51.8047 7.66667 51.1953 6.95312C50.5911 6.23438 49.7318 5.86979 48.6172 5.85938H46.8672ZM64.6172 10.6797C64.6172 11.7943 64.4297 12.7682 64.0547 13.6016C63.6797 14.4297 63.1484 15.0625 62.4609 15.5C61.7734 15.9375 60.9714 16.1562 60.0547 16.1562C59.1589 16.1562 58.3646 15.9375 57.6719 15.5C56.9792 15.0573 56.4401 14.4297 56.0547 13.6172C55.6745 12.7995 55.4792 11.8542 55.4688 10.7812V9.96094C55.4688 8.86719 55.6589 7.90104 56.0391 7.0625C56.4193 6.22396 56.9557 5.58333 57.6484 5.14062C58.3464 4.69271 59.1432 4.46875 60.0391 4.46875C60.9505 4.46875 61.7526 4.6901 62.4453 5.13281C63.1432 5.57031 63.6797 6.20833 64.0547 7.04688C64.4297 7.88021 64.6172 8.85156 64.6172 9.96094V10.6797ZM63.125 9.94531C63.125 8.59635 62.8542 7.5625 62.3125 6.84375C61.7708 6.11979 61.013 5.75781 60.0391 5.75781C59.0911 5.75781 58.3438 6.11979 57.7969 6.84375C57.2552 7.5625 56.9766 8.5625 56.9609 9.84375V10.6797C56.9609 11.987 57.2344 13.0156 57.7812 13.7656C58.3333 14.5104 59.0911 14.8828 60.0547 14.8828C61.0234 14.8828 61.7734 14.5312 62.3047 13.8281C62.8359 13.1198 63.1094 12.1068 63.125 10.7891V9.94531ZM70.2188 10.9297C68.9323 10.5599 67.9948 10.1068 67.4062 9.57031C66.8229 9.02865 66.5312 8.36198 66.5312 7.57031C66.5312 6.67448 66.888 5.9349 67.6016 5.35156C68.3203 4.76302 69.2526 4.46875 70.3984 4.46875C71.1797 4.46875 71.875 4.61979 72.4844 4.92188C73.099 5.22396 73.5729 5.64062 73.9062 6.17188C74.2448 6.70312 74.4141 7.28385 74.4141 7.91406H72.9062C72.9062 7.22656 72.6875 6.6875 72.25 6.29688C71.8125 5.90104 71.1953 5.70312 70.3984 5.70312C69.6589 5.70312 69.0807 5.86719 68.6641 6.19531C68.2526 6.51823 68.0469 6.96875 68.0469 7.54688C68.0469 8.01042 68.2422 8.40365 68.6328 8.72656C69.0286 9.04427 69.6979 9.33594 70.6406 9.60156C71.5885 9.86719 72.3281 10.1615 72.8594 10.4844C73.3958 10.8021 73.7917 11.1745 74.0469 11.6016C74.3073 12.0286 74.4375 12.5312 74.4375 13.1094C74.4375 14.0312 74.0781 14.7708 73.3594 15.3281C72.6406 15.8802 71.6797 16.1562 70.4766 16.1562C69.6953 16.1562 68.9661 16.0078 68.2891 15.7109C67.612 15.4089 67.0885 14.9974 66.7188 14.4766C66.3542 13.9557 66.1719 13.3646 66.1719 12.7031H67.6797C67.6797 13.3906 67.9323 13.9349 68.4375 14.3359C68.9479 14.7318 69.6276 14.9297 70.4766 14.9297C71.2682 14.9297 71.875 14.7682 72.2969 14.4453C72.7188 14.1224 72.9297 13.6823 72.9297 13.125C72.9297 12.5677 72.7344 12.138 72.3438 11.8359C71.9531 11.5286 71.2448 11.2266 70.2188 10.9297Z" fill="black"/>
</svg>
