<svg width="85" height="81" viewBox="0 0 85 81" fill="none" xmlns="http://www.w3.org/2000/svg">
<rect width="85" height="20" fill="#AB6AD3"/>
<path fill-rule="evenodd" clip-rule="evenodd" d="M78 20H8V80.8323L43 52L78 80.8323V20Z" fill="#FFFFC6"/>
<path d="M11.1797 6.85938H7.52344V17H6.03125V6.85938H2.38281V5.625H11.1797V6.85938ZM17.0391 12.3984H14.3672V17H12.8594V5.625H16.625C17.9062 5.625 18.8906 5.91667 19.5781 6.5C20.2708 7.08333 20.6172 7.93229 20.6172 9.04688C20.6172 9.75521 20.4245 10.3724 20.0391 10.8984C19.6589 11.4245 19.1276 11.8177 18.4453 12.0781L21.1172 16.9062V17H19.5078L17.0391 12.3984ZM14.3672 11.1719H16.6719C17.4167 11.1719 18.0078 10.9792 18.4453 10.5938C18.888 10.2083 19.1094 9.69271 19.1094 9.04688C19.1094 8.34375 18.8984 7.80469 18.4766 7.42969C18.0599 7.05469 17.4557 6.86458 16.6641 6.85938H14.3672V11.1719ZM29.0078 14.0312H24.2422L23.1719 17H21.625L25.9688 5.625H27.2812L31.6328 17H30.0938L29.0078 14.0312ZM24.6953 12.7969H28.5625L26.625 7.47656L24.6953 12.7969ZM33.1641 17V5.625H36.8828C38.1172 5.625 39.0443 5.88021 39.6641 6.39062C40.2891 6.90104 40.6016 7.65625 40.6016 8.65625C40.6016 9.1875 40.4505 9.65885 40.1484 10.0703C39.8464 10.4766 39.4349 10.7917 38.9141 11.0156C39.5286 11.1875 40.013 11.5156 40.3672 12C40.7266 12.4792 40.9062 13.0521 40.9062 13.7188C40.9062 14.7396 40.5755 15.5417 39.9141 16.125C39.2526 16.7083 38.3177 17 37.1094 17H33.1641ZM34.6641 11.6797V15.7734H37.1406C37.8385 15.7734 38.388 15.5938 38.7891 15.2344C39.1953 14.8698 39.3984 14.3698 39.3984 13.7344C39.3984 12.3646 38.6536 11.6797 37.1641 11.6797H34.6641ZM34.6641 10.4766H36.9297C37.5859 10.4766 38.1094 10.3125 38.5 9.98438C38.8958 9.65625 39.0938 9.21094 39.0938 8.64844C39.0938 8.02344 38.9115 7.57031 38.5469 7.28906C38.1823 7.0026 37.6276 6.85938 36.8828 6.85938H34.6641V10.4766ZM49.4141 14.0312H44.6484L43.5781 17H42.0312L46.375 5.625H47.6875L52.0391 17H50.5L49.4141 14.0312ZM45.1016 12.7969H48.9688L47.0312 7.47656L45.1016 12.7969ZM55.0781 15.7734H60.4688V17H53.5703V5.625H55.0781V15.7734ZM70.9219 17H69.4141V11.7422H63.6797V17H62.1797V5.625H63.6797V10.5156H69.4141V5.625H70.9219V17ZM82.3359 11.6797C82.3359 12.7943 82.1484 13.7682 81.7734 14.6016C81.3984 15.4297 80.8672 16.0625 80.1797 16.5C79.4922 16.9375 78.6901 17.1562 77.7734 17.1562C76.8776 17.1562 76.0833 16.9375 75.3906 16.5C74.6979 16.0573 74.1589 15.4297 73.7734 14.6172C73.3932 13.7995 73.1979 12.8542 73.1875 11.7812V10.9609C73.1875 9.86719 73.3776 8.90104 73.7578 8.0625C74.138 7.22396 74.6745 6.58333 75.3672 6.14062C76.0651 5.69271 76.862 5.46875 77.7578 5.46875C78.6693 5.46875 79.4714 5.6901 80.1641 6.13281C80.862 6.57031 81.3984 7.20833 81.7734 8.04688C82.1484 8.88021 82.3359 9.85156 82.3359 10.9609V11.6797ZM80.8438 10.9453C80.8438 9.59635 80.5729 8.5625 80.0312 7.84375C79.4896 7.11979 78.7318 6.75781 77.7578 6.75781C76.8099 6.75781 76.0625 7.11979 75.5156 7.84375C74.974 8.5625 74.6953 9.5625 74.6797 10.8438V11.6797C74.6797 12.987 74.9531 14.0156 75.5 14.7656C76.0521 15.5104 76.8099 15.8828 77.7734 15.8828C78.7422 15.8828 79.4922 15.5312 80.0234 14.8281C80.5547 14.1198 80.8281 13.1068 80.8438 11.7891V10.9453Z" fill="black"/>
</svg>
