<svg width="212" height="212" viewBox="0 0 212 212" fill="none" xmlns="http://www.w3.org/2000/svg">
<path d="M99.0067 180.65L88.5537 197.219L86.3542 196.76L83.3985 177.388L85.946 177.92L86.4316 181.679L94.447 183.354L96.4095 180.107L99.0067 180.65ZM93.4791 185.007L86.6319 183.576L87.9829 194.117L93.4791 185.007Z" fill="black"/>
<path d="M78.8487 170.642L78.2074 172.532L77.8757 172.372C77.0977 171.998 76.5296 171.851 76.1712 171.932C75.8165 172.006 75.5294 172.173 75.3101 172.434C75.0944 172.687 74.8709 173.054 74.6397 173.534L68.7832 185.706L66.6325 184.672L72.4285 172.625C73.3862 170.635 74.4364 169.623 75.5791 169.591C76.2564 169.569 77.0946 169.799 78.0937 170.279L78.8487 170.642ZM67.7319 187.891L66.6586 190.122L64.5079 189.087L65.5812 186.857L67.7319 187.891Z" fill="black"/>
<path d="M60.6538 164.787C62.4498 166.214 63.0844 167.756 62.5575 169.412C62.4072 169.887 62.1609 170.34 61.8188 170.771L55.7389 178.426L53.87 176.941L59.9577 169.277C60.3683 168.76 60.5032 168.202 60.3623 167.604C60.2095 167.007 59.7554 166.408 58.9998 165.808C58.2443 165.208 57.4839 164.907 56.7186 164.904C55.9413 164.903 55.358 165.148 54.9684 165.638L49.0386 173.104L47.1697 171.619L55.5393 161.082L57.2095 162.408L56.3581 163.888C57.7572 163.324 59.1891 163.624 60.6538 164.787Z" fill="black"/>
<path d="M34.6116 157.893C33.9783 157.014 33.5343 156.108 33.2796 155.175L28.4797 158.634L27.0845 156.697L42.5967 145.521L43.5466 146.839L43.0557 147.678C43.559 147.827 44.1013 148.109 44.6825 148.524C45.2637 148.94 45.7473 149.416 46.1332 149.951C47.2068 151.442 47.6663 152.774 47.5118 153.95C47.3454 155.123 46.6991 156.116 45.5729 156.927L41.4528 159.895C40.3198 160.712 39.1746 160.968 38.0174 160.665C36.8601 160.362 35.7248 159.438 34.6116 157.893ZM44.3219 154.887C44.9743 154.417 45.3064 153.828 45.3183 153.12C45.3252 152.406 45.1035 151.736 44.6533 151.112C43.8518 149.999 42.9824 149.249 42.0452 148.86L34.8041 154.077C34.9522 154.92 35.3478 155.787 35.991 156.68C37.3218 158.527 38.6053 159.005 39.8413 158.115L44.3219 154.887Z" fill="black"/>
<path d="M36.8192 133.147C37.2937 134.425 37.317 135.545 36.8891 136.507C36.4533 137.473 35.7196 138.147 34.6882 138.53C34.1011 138.748 33.5675 138.807 33.0874 138.705C32.1083 138.5 30.7966 137.29 29.1521 135.075C28.2219 133.786 27.5743 133.088 27.2091 132.98C26.8409 132.864 26.5731 132.823 26.4056 132.858C26.2301 132.896 25.9639 132.982 25.6069 133.114C25.2499 133.247 24.9553 133.523 24.7232 133.944C24.4881 134.356 24.5504 135.046 24.91 136.014C25.4169 137.379 25.9897 138.119 26.6282 138.233C26.9569 138.292 27.3514 138.236 27.8115 138.065L28.3709 137.857L29.1711 140.011L28.5998 140.223C27.3701 140.68 26.3138 140.607 25.4311 140.005C24.5454 139.395 23.799 138.273 23.1919 136.639C22.5847 135.005 22.5243 133.7 23.0108 132.725C23.4892 131.752 24.4147 131.011 25.7873 130.501L31.1664 128.503C31.8249 128.258 32.2224 128.016 32.3588 127.776C32.4873 127.538 32.4499 127.146 32.2466 126.598L34.0575 126.224L34.2255 126.676C34.5202 127.469 34.5891 128.116 34.432 128.617C34.267 129.121 33.9015 129.595 33.3355 130.04C34.5639 130.333 35.4775 130.897 36.0762 131.731C36.3682 132.128 36.6159 132.6 36.8192 133.147ZM30.5723 134.195C31.3161 135.201 31.9317 135.861 32.4191 136.177C32.9036 136.485 33.4433 136.528 34.0383 136.307C34.6254 136.089 34.996 135.725 35.1502 135.217C35.3013 134.7 35.2723 134.16 35.063 133.597C34.8508 133.025 34.5878 132.536 34.2741 132.129C33.9524 131.725 33.581 131.394 33.1598 131.135C32.7277 130.871 32.3046 130.753 31.8904 130.78L28.2488 132.133C29.0431 132.497 29.8176 133.184 30.5723 134.195Z" fill="black"/>
<path d="M21.5319 110.017C20.2208 110.062 19.5988 111.053 19.6659 112.99C19.6999 113.972 19.9376 114.721 20.3789 115.24C20.8115 115.75 21.3747 115.993 22.0683 115.969L31.6475 115.637L31.7301 118.022L18.2811 118.488L18.1985 116.103L19.5053 116.057C18.4339 115.197 17.8671 113.87 17.8051 112.077C17.7427 110.275 18.2871 108.999 19.4382 108.247L19.1227 107.941C18.1163 107.002 17.5828 105.657 17.5222 103.906C17.444 101.647 18.1992 100.224 19.7879 99.6354C20.2394 99.4674 20.7442 99.3737 21.3025 99.3543L31.072 99.0161L31.1546 101.401L21.2455 101.744C19.9344 101.79 19.3094 102.692 19.3703 104.452C19.4086 105.56 19.6485 106.373 20.0899 106.891C20.5225 107.401 21.0856 107.644 21.7792 107.62L31.3584 107.288L31.441 109.674L21.5319 110.017Z" fill="black"/>
<path d="M29.8413 86.7249C31.2783 87.1482 32.2969 86.341 32.8972 84.3032C33.4975 82.2655 33.0791 81.0349 31.6421 80.6116L26.0525 78.965C24.6074 78.5393 23.5847 79.3454 22.9844 81.3831C22.3841 83.4209 22.8065 84.6527 24.2516 85.0784L29.8413 86.7249ZM32.1217 78.2648C33.3882 78.6378 34.2629 79.3675 34.7458 80.4539C35.223 81.5297 35.1901 82.9891 34.6473 84.832C34.1044 86.6749 33.3408 87.919 32.3567 88.5644C31.3749 89.2016 30.2467 89.3325 28.972 88.957L23.7721 87.4252C22.4974 87.0497 21.6203 86.3281 21.1408 85.2604C20.6555 84.1822 20.6843 82.7217 21.2272 80.8788C21.7701 79.0358 22.5376 77.7929 23.5299 77.1499C24.5246 76.4989 25.6552 76.3599 26.9217 76.733L32.1217 78.2648Z" fill="black"/>
<path d="M40.4182 66.9943C41.338 65.4439 41.2193 64.3253 40.0619 63.6387C39.5597 63.3407 39.1474 63.1896 38.8252 63.1854C38.4956 63.1769 38.0851 63.3712 37.5936 63.7685L34.9458 65.9175C34.1464 66.5847 33.4435 66.9649 32.8373 67.0579C32.2281 67.1393 31.6141 66.9964 30.9954 66.6294C30.3767 66.2623 29.9184 65.9068 29.6206 65.5628C29.3155 65.2145 29.1053 64.8142 28.9898 64.3619C28.7589 63.4573 29.0796 62.2698 29.952 60.7995C30.8243 59.3291 31.7868 58.1879 32.8395 57.3756L34.1332 58.7779C33.7601 59.0584 33.3288 59.4619 32.8393 59.9883C32.3426 60.5104 31.9604 60.9971 31.6926 61.4484C31.0751 62.4893 30.8516 63.2473 31.0224 63.7226C31.1341 64.0152 31.3938 64.2825 31.8014 64.5243C32.2091 64.7662 32.5391 64.8734 32.7915 64.846C33.041 64.807 33.3515 64.6321 33.723 64.321L36.4059 62.2372C37.3385 61.5112 38.119 61.1329 38.7474 61.1022C39.3684 61.0672 40.1594 61.3347 41.1202 61.9047C42.081 62.4748 42.6872 63.2527 42.9389 64.2385C43.1832 65.2199 42.921 66.3585 42.1523 67.6541C41.5909 68.6004 40.9902 69.3806 40.3503 69.9949C39.7103 70.6091 39.1645 71.048 38.713 71.3115L37.5042 69.9153C38.7041 69.2199 39.6754 68.2462 40.4182 66.9943Z" fill="black"/>
<path d="M59.1085 35.3414C58.3436 34.2756 57.1463 34.3275 55.5167 35.4971C54.7122 36.0745 54.203 36.7004 53.9891 37.3748C53.7751 38.0492 53.868 38.6649 54.2677 39.2219L59.8564 47.0089L57.9174 48.4005L50.071 37.4677L52.01 36.0761L52.7725 37.1385C52.8943 35.7696 53.6704 34.572 55.1006 33.5455C56.9571 32.2131 58.6017 32.0225 60.0344 32.9736C60.4384 33.2462 60.8032 33.6094 61.1289 34.0632L66.8287 42.005L64.8896 43.3966L59.1085 35.3414Z" fill="black"/>
<path d="M75.8216 33.2877C76.3406 34.693 77.5965 35.0276 79.5893 34.2915C81.582 33.5554 82.3189 32.4847 81.7998 31.0794L79.7806 25.6133C79.2586 24.2001 78.0012 23.8616 76.0085 24.5977C74.0158 25.3338 73.2804 26.4084 73.8024 27.8216L75.8216 33.2877ZM83.9682 30.0619C84.4257 31.3004 84.3632 32.4378 83.7806 33.4741C83.2029 34.4995 82.013 35.345 80.2108 36.0107C78.4086 36.6764 76.9548 36.8075 75.8493 36.4038C74.7517 35.9972 73.9727 35.1707 73.5123 33.9242L71.6339 28.8392C71.1735 27.5927 71.2281 26.4582 71.7978 25.4358C72.3725 24.4025 73.5609 23.5529 75.3631 22.8872C77.1653 22.2215 78.6206 22.0944 79.7291 22.506C80.8454 22.9147 81.6324 23.7383 82.0899 24.9768L83.9682 30.0619Z" fill="black"/>
<path d="M97.963 29.9815C99.7559 29.7929 100.582 29.0294 100.441 27.6911C100.38 27.1103 100.255 26.6894 100.066 26.4285C99.8756 26.1592 99.4745 25.9461 98.8623 25.7892L95.557 24.9498C94.5444 24.7075 93.8196 24.371 93.3828 23.9404C92.9536 23.5005 92.7013 22.9228 92.626 22.2073C92.5507 21.4919 92.562 20.912 92.66 20.4677C92.757 20.0149 92.9524 19.6071 93.2461 19.2443C93.8335 18.5187 94.9774 18.0665 96.6776 17.8875C98.3779 17.7086 99.8681 17.7986 101.148 18.1575L100.797 20.0327C100.349 19.9011 99.7677 19.7963 99.0532 19.7183C98.3377 19.6319 97.7191 19.6162 97.1972 19.6711C95.9936 19.7977 95.2522 20.0715 94.9731 20.4923C94.8052 20.7568 94.746 21.1247 94.7956 21.5961C94.8452 22.0674 94.9564 22.3961 95.1292 22.5822C95.3095 22.759 95.6353 22.9034 96.1067 23.0155L99.3806 23.922C100.52 24.2361 101.29 24.6359 101.69 25.1215C102.089 25.5986 102.347 26.3927 102.464 27.5038C102.581 28.6148 102.319 29.5657 101.679 30.3564C101.038 31.1388 99.9682 31.6088 98.47 31.7664C97.3758 31.8816 96.3912 31.866 95.5163 31.7198C94.6414 31.5736 93.9633 31.3981 93.4823 31.1934L93.8797 29.39C95.1542 29.9367 96.5153 30.1339 97.963 29.9815Z" fill="black"/>
<path d="M127.629 32.6658C129.357 33.1783 130.413 32.7896 130.796 31.4994C130.962 30.9395 131.007 30.5028 130.933 30.1893C130.86 29.8677 130.571 29.5172 130.066 29.1378L127.334 27.0962C126.492 26.4844 125.951 25.8959 125.713 25.3308C125.485 24.76 125.473 24.1297 125.678 23.44C125.882 22.7503 126.115 22.219 126.376 21.8461C126.639 21.4651 126.975 21.1633 127.386 20.9407C128.206 20.4955 129.436 20.5159 131.075 21.002C132.714 21.4882 134.056 22.1422 135.101 22.9642L134.058 24.5616C133.695 24.2685 133.198 23.949 132.568 23.6032C131.94 23.2493 131.375 22.9978 130.872 22.8486C129.711 22.5044 128.922 22.4733 128.503 22.7551C128.246 22.935 128.051 23.2522 127.916 23.7066C127.781 24.161 127.758 24.5072 127.846 24.7453C127.945 24.9776 128.191 25.2359 128.583 25.52L131.26 27.6116C132.192 28.3383 132.75 29.0025 132.933 29.6043C133.119 30.1979 133.053 31.0302 132.736 32.1013C132.418 33.1724 131.812 33.9505 130.918 34.4357C130.026 34.9127 128.858 34.937 127.414 34.5087C126.359 34.1958 125.455 33.8043 124.703 33.334C123.951 32.8638 123.392 32.4419 123.026 32.0686L124.084 30.555C125.052 31.5482 126.233 32.2518 127.629 32.6658Z" fill="black"/>
<path d="M144.131 41.8553C142.437 40.846 141.422 39.7634 141.086 38.6076C140.75 37.4518 141.019 36.1395 141.894 34.6708L144.292 30.6464C144.972 29.5048 145.896 28.8386 147.064 28.6478C148.232 28.4569 149.601 28.8293 151.172 29.765C152.749 30.7051 153.738 31.7079 154.138 32.7735C154.549 33.8362 154.419 34.931 153.747 36.058L152.11 38.8064L144.802 34.4528L143.834 36.0778C143.262 37.0376 143.057 37.8213 143.217 38.429C143.381 39.0294 143.965 39.6285 144.968 40.2263C145.972 40.8241 146.552 41.1402 146.709 41.1745C146.866 41.2089 147.03 41.2381 147.203 41.2623C147.376 41.2864 147.512 41.2737 147.61 41.224C147.716 41.1787 147.86 41.102 148.043 40.994C148.237 40.8831 148.497 40.6044 148.822 40.1578L150.632 41.2364C150.148 41.8838 149.693 42.3664 149.267 42.6841C148.849 43.0062 148.378 43.184 147.856 43.2176C147.345 43.2482 146.806 43.1534 146.237 42.933C145.676 42.7171 144.974 42.3578 144.131 41.8553ZM145.628 33.0677L150.95 36.2387L151.892 34.6572C152.282 34.0029 152.325 33.4178 152.022 32.902C151.725 32.3905 151.145 31.877 150.279 31.3615C149.414 30.846 148.66 30.5987 148.017 30.6196C147.381 30.6448 146.86 30.9991 146.453 31.6826L145.628 33.0677Z" fill="black"/>
<path d="M158.971 53.4552C157.383 51.8003 156.962 50.1874 157.706 48.6165C157.919 48.1659 158.224 47.7502 158.621 47.3693L165.674 40.6008L167.326 42.3228L160.264 49.1001C159.788 49.5572 159.579 50.0917 159.639 50.7034C159.71 51.3155 160.079 51.9696 160.748 52.6657C161.416 53.3618 162.129 53.7626 162.887 53.868C163.657 53.9736 164.268 53.8096 164.72 53.376L171.599 46.7745L173.251 48.4965L163.542 57.8142L162.065 56.2754L163.107 54.9231C161.645 55.294 160.267 54.8047 158.971 53.4552Z" fill="black"/>
<path d="M172.578 68.5284C173.457 70.1023 174.484 70.5613 175.659 69.9052C176.169 69.6205 176.507 69.3399 176.672 69.0633C176.845 68.7826 176.883 68.33 176.786 67.7054L176.257 64.3366C176.082 63.3102 176.106 62.5115 176.33 61.9405C176.565 61.3728 176.997 60.9136 177.625 60.5628C178.253 60.2121 178.791 59.9943 179.238 59.9095C179.692 59.8206 180.144 59.8397 180.593 59.967C181.492 60.2215 182.357 61.0951 183.191 62.5878C184.024 64.0805 184.528 65.486 184.702 66.8042L182.84 67.2188C182.784 66.7553 182.652 66.1797 182.443 65.4921C182.24 64.8004 182.012 64.2254 181.756 63.7673C181.166 62.7106 180.622 62.1367 180.126 62.0457C179.816 61.9954 179.455 62.0858 179.041 62.3169C178.627 62.548 178.369 62.7795 178.266 63.0116C178.174 63.2469 178.17 63.6032 178.252 64.0807L178.707 67.4472C178.866 68.6183 178.802 69.4833 178.513 70.0421C178.231 70.5967 177.603 71.1464 176.627 71.6911C175.652 72.2357 174.675 72.3694 173.696 72.092C172.724 71.8105 171.871 71.0121 171.137 69.6967C170.6 68.7361 170.227 67.8248 170.017 66.963C169.808 66.1011 169.702 65.4087 169.701 64.8859L171.515 64.5416C171.514 65.9285 171.869 67.2574 172.578 68.5284Z" fill="black"/>
<path d="M180.085 98.13C179.883 96.1684 180.144 94.7077 180.87 93.7477C181.597 92.7878 182.81 92.2199 184.511 92.0441L189.17 91.5625C190.492 91.4259 191.578 91.7688 192.429 92.5913C193.28 93.4138 193.799 94.7342 193.987 96.5527C194.176 98.3795 193.963 99.7715 193.347 100.729C192.74 101.693 191.785 102.243 190.48 102.378L187.297 102.707L186.423 94.2459L184.541 94.4404C183.43 94.5553 182.679 94.8584 182.287 95.3499C181.904 95.8404 181.772 96.6666 181.892 97.8284C182.012 98.9902 182.105 99.6442 182.172 99.7905C182.238 99.9368 182.313 100.086 182.397 100.239C182.481 100.392 182.572 100.494 182.67 100.543C182.77 100.601 182.918 100.671 183.113 100.753C183.318 100.842 183.697 100.884 184.249 100.878L184.466 102.974C183.658 102.972 182.999 102.896 182.49 102.744C181.981 102.601 181.558 102.33 181.219 101.931C180.889 101.54 180.643 101.05 180.48 100.463C180.318 99.8843 180.186 99.1066 180.085 98.13ZM188.027 94.0801L188.664 100.243L190.495 100.053C191.252 99.975 191.747 99.6601 191.98 99.1086C192.213 98.5654 192.278 97.793 192.174 96.7911C192.07 95.7893 191.818 95.0368 191.417 94.5337C191.017 94.039 190.422 93.8326 189.63 93.9144L188.027 94.0801Z" fill="black"/>
<path d="M181.516 116.785C181.253 118.569 181.788 119.559 183.119 119.754C183.697 119.839 184.136 119.822 184.436 119.704C184.744 119.587 185.05 119.251 185.354 118.697L186.987 115.704C187.473 114.783 187.979 114.164 188.505 113.848C189.037 113.541 189.66 113.44 190.371 113.545C191.083 113.65 191.642 113.805 192.048 114.01C192.463 114.216 192.809 114.507 193.088 114.881C193.645 115.63 193.799 116.851 193.55 118.542C193.301 120.234 192.844 121.655 192.179 122.806L190.45 122C190.688 121.599 190.934 121.062 191.187 120.389C191.448 119.717 191.617 119.122 191.694 118.603C191.87 117.405 191.788 116.619 191.45 116.244C191.236 116.016 190.894 115.867 190.425 115.798C189.956 115.73 189.61 115.756 189.387 115.877C189.171 116.008 188.95 116.287 188.724 116.716L187.034 119.663C186.447 120.688 185.868 121.335 185.299 121.602C184.737 121.87 183.904 121.923 182.799 121.76C181.693 121.598 180.837 121.108 180.23 120.292C179.631 119.477 179.442 118.324 179.661 116.833C179.821 115.745 180.08 114.795 180.439 113.984C180.798 113.172 181.136 112.559 181.454 112.144L183.102 112.977C182.256 114.075 181.727 115.345 181.516 116.785Z" fill="black"/>
<path d="M174.533 135.573C175.21 133.82 175.976 132.66 176.831 132.092C177.682 131.532 178.783 131.513 180.133 132.035L187.416 134.849L188.226 132.753L189.907 133.403L189.065 135.582L192.844 137.355L192.121 139.226L188.237 137.725L187.019 140.875L185.338 140.225L186.555 137.075L179.415 134.316C178.625 134.011 178.013 134.033 177.579 134.382C177.149 134.742 176.716 135.487 176.28 136.616L176.184 136.864L174.404 135.905L174.533 135.573Z" fill="black"/>
<path d="M167.656 147.589C168.972 145.711 170.473 144.985 172.158 145.412C172.642 145.533 173.108 145.752 173.559 146.068L181.564 151.678L180.195 153.632L172.179 148.015C171.638 147.636 171.073 147.535 170.485 147.711C169.898 147.9 169.328 148.389 168.774 149.179C168.22 149.969 167.965 150.746 168.008 151.51C168.054 152.286 168.333 152.854 168.846 153.213L176.654 158.685L175.284 160.64L164.264 152.917L165.488 151.17L167.016 151.931C166.369 150.568 166.582 149.121 167.656 147.589Z" fill="black"/>
<path d="M162.335 173.998C161.495 174.683 160.618 175.18 159.702 175.49L163.442 180.074L161.593 181.583L149.506 166.769L150.765 165.742L151.632 166.181C151.75 165.67 151.999 165.112 152.379 164.507C152.76 163.902 153.205 163.39 153.717 162.973C155.14 161.812 156.443 161.273 157.625 161.357C158.807 161.453 159.836 162.039 160.714 163.114L163.924 167.049C164.807 168.131 165.131 169.259 164.898 170.432C164.665 171.605 163.81 172.794 162.335 173.998ZM158.752 164.485C158.244 163.862 157.636 163.566 156.929 163.597C156.216 163.632 155.561 163.894 154.964 164.381C153.901 165.247 153.204 166.16 152.872 167.119L158.514 174.034C159.347 173.836 160.189 173.389 161.041 172.694C162.806 171.254 163.206 169.945 162.243 168.764L158.752 164.485Z" fill="black"/>
<path d="M140.715 176.314C140.11 174.944 138.836 174.687 136.893 175.545C134.949 176.403 134.28 177.517 134.885 178.888L137.238 184.219C137.846 185.597 139.122 185.857 141.066 184.999C143.009 184.141 143.677 183.023 143.068 181.645L140.715 176.314ZM132.783 180.037C132.25 178.829 132.242 177.69 132.76 176.62C133.273 175.561 134.408 174.643 136.166 173.868C137.924 173.092 139.367 172.871 140.495 173.206C141.616 173.544 142.444 174.321 142.981 175.536L145.17 180.495C145.706 181.711 145.722 182.847 145.217 183.902C144.707 184.969 143.573 185.891 141.816 186.666C140.058 187.442 138.613 187.659 137.482 187.317C136.342 186.978 135.506 186.204 134.973 184.996L132.783 180.037Z" fill="black"/>
<path d="M118.82 180.982C117.043 181.281 116.265 182.094 116.489 183.421C116.586 183.997 116.736 184.41 116.941 184.658C117.148 184.916 117.561 185.103 118.182 185.222L121.533 185.856C122.559 186.035 123.303 186.326 123.765 186.729C124.221 187.141 124.508 187.702 124.628 188.412C124.747 189.121 124.772 189.701 124.701 190.15C124.632 190.608 124.463 191.027 124.192 191.407C123.65 192.168 122.537 192.69 120.851 192.974C119.165 193.257 117.672 193.26 116.372 192.981L116.607 191.087C117.062 191.191 117.649 191.26 118.367 191.293C119.086 191.335 119.704 191.313 120.222 191.226C121.415 191.025 122.139 190.706 122.391 190.269C122.542 189.994 122.579 189.623 122.5 189.156C122.421 188.689 122.29 188.367 122.106 188.192C121.915 188.027 121.581 187.903 121.104 187.82L117.78 187.118C116.623 186.875 115.83 186.523 115.401 186.063C114.973 185.612 114.667 184.835 114.481 183.733C114.296 182.632 114.498 181.666 115.088 180.838C115.68 180.017 116.719 179.482 118.204 179.232C119.289 179.05 120.273 179.004 121.155 179.096C122.037 179.188 122.725 179.321 123.218 179.496L122.933 181.32C121.627 180.853 120.256 180.741 118.82 180.982Z" fill="black"/>
</svg>
