<svg width="209" height="209" viewBox="0 0 209 209" fill="none" xmlns="http://www.w3.org/2000/svg">
<path d="M95.3477 177.783C96.3136 178.514 96.8978 179.369 97.1003 180.347C97.3015 181.335 97.2912 182.479 97.0697 183.781L96.1025 189.463C95.6537 192.099 94.6634 193.781 93.1317 194.507C91.8342 195.119 90.0799 195.237 87.8689 194.861C85.6495 194.483 84.0918 193.9 83.1957 193.112C82.2981 192.333 81.8357 191.267 81.8084 189.914C81.791 189.31 81.8512 188.603 81.9889 187.794L84.4156 187.988C84.2082 189.206 84.1726 190.046 84.3088 190.507C84.4435 190.976 84.5995 191.321 84.7769 191.54C84.9459 191.757 85.2526 191.973 85.6971 192.186C86.1402 192.407 86.8582 192.602 87.8511 192.771C88.844 192.94 89.6355 193.006 90.2255 192.969C90.8142 192.941 91.3351 192.806 91.7881 192.566C92.6565 192.104 93.2257 191.081 93.4955 189.495L94.6076 182.962C94.8746 181.394 94.6656 180.276 93.9806 179.61C93.2941 178.953 92.104 178.48 90.4103 178.191C88.7082 177.902 87.5895 177.917 87.054 178.238C86.5186 178.559 86.1314 179.094 85.8922 179.843C85.7628 180.25 85.6484 180.746 85.549 181.33L83.1585 180.923C83.4682 179.104 83.9483 177.873 84.5989 177.228C85.7997 176.024 87.7559 175.653 90.4676 176.115C92.7453 176.503 94.372 177.058 95.3477 177.783Z" fill="black"/>
<path d="M74.6251 171.329C75.3556 171.622 75.9306 171.917 76.35 172.212C76.7694 172.508 77.0944 172.88 77.325 173.328C77.7549 174.166 77.6139 175.473 76.902 177.248L71.4824 190.764L69.2671 189.876L74.6962 176.337C75.0994 175.331 75.2132 174.615 75.0375 174.189C74.8619 173.763 74.3066 173.363 73.3718 172.988L72.983 172.832L73.9888 171.074L74.6251 171.329Z" fill="black"/>
<path d="M67.9972 168.026L61.1648 179.619L59.1086 178.408L65.941 166.814L67.9972 168.026ZM59.9337 181.708L58.6768 183.841L56.6206 182.629L57.8775 180.497L59.9337 181.708Z" fill="black"/>
<path d="M56.7742 153.212L52.9528 157.544C53.4288 157.58 53.9429 157.745 54.495 158.041C55.0528 158.33 55.5347 158.653 55.9409 159.012C57.2166 160.137 57.9579 161.299 58.1648 162.497C58.3662 163.702 58.0329 164.796 57.165 165.78L53.688 169.721C52.7697 170.762 51.7142 171.287 50.5215 171.295C49.3288 171.304 48.0914 170.743 46.8093 169.612C46.3079 169.17 45.8922 168.611 45.5621 167.936C45.2265 167.267 45.092 166.748 45.1588 166.378L44.4449 167.187L42.6552 165.609L54.9844 151.633L56.7742 153.212ZM54.6173 160.282C54.027 159.761 53.4377 159.399 52.8494 159.196C52.2491 158.994 51.8524 158.932 51.6594 159.01L46.5446 164.807C46.2647 165.125 46.2119 165.575 46.3863 166.158C46.5606 166.74 47.016 167.356 47.7522 168.006C48.4884 168.655 49.2039 169.021 49.8986 169.104C50.5934 169.186 51.2039 168.929 51.7302 168.333L55.6272 163.915C56.5343 162.887 56.1976 161.676 54.6173 160.282Z" fill="black"/>
<path d="M44.7819 146.537C46.101 148.413 46.2736 150.071 45.2995 151.511C45.021 151.924 44.6566 152.289 44.2066 152.605L36.2096 158.227L34.837 156.275L42.8443 150.646C43.3844 150.266 43.6715 149.769 43.7056 149.155C43.7279 148.54 43.4616 147.837 42.9067 147.048C42.3518 146.259 41.7077 145.754 40.9744 145.535C40.2293 145.314 39.6005 145.384 39.0882 145.744L31.2886 151.227L29.9159 149.275L40.9247 141.536L42.1513 143.28L40.916 144.459C42.4176 144.314 43.7062 145.006 44.7819 146.537Z" fill="black"/>
<path d="M36.3632 130.879C37.1005 132.708 37.253 134.184 36.8206 135.308C36.3883 136.431 35.3793 137.312 33.7937 137.951L29.4489 139.703C28.2165 140.2 27.0777 140.171 26.0327 139.615C24.9876 139.06 24.1233 137.935 23.4398 136.239C22.7531 134.536 22.5733 133.139 22.9004 132.049C23.2165 130.955 23.9829 130.162 25.1996 129.671L28.1668 128.475L31.3471 136.364L33.1015 135.657C34.1377 135.239 34.776 134.74 35.0164 134.16C35.2491 133.582 35.147 132.752 34.7103 131.669C34.2736 130.585 34.0033 129.983 33.8992 129.86C33.7952 129.738 33.6817 129.615 33.5587 129.491C33.4358 129.367 33.3201 129.295 33.2116 129.275C33.1 129.247 32.9388 129.221 32.7281 129.196C32.5064 129.167 32.131 129.232 31.6018 129.39L30.8138 127.436C31.5912 127.213 32.2455 127.105 32.7767 127.11C33.3048 127.107 33.7869 127.25 34.223 127.54C34.6481 127.825 35.0201 128.227 35.339 128.746C35.6547 129.257 35.9961 129.969 36.3632 130.879ZM29.8517 136.967L27.5354 131.221L25.828 131.909C25.1216 132.194 24.733 132.634 24.6623 133.228C24.5884 133.814 24.7398 134.575 25.1163 135.509C25.4929 136.443 25.9434 137.096 26.4677 137.469C26.9889 137.834 27.6185 137.867 28.3563 137.57L29.8517 136.967Z" fill="black"/>
<path d="M36.3985 110.366L17.7652 110.725L17.729 108.847L18.739 108.548C18.3846 108.165 18.0782 107.638 17.8197 106.966C17.5528 106.294 17.4123 105.594 17.3983 104.866C17.3662 103.199 17.748 101.926 18.5437 101.047C19.3392 100.16 20.4097 99.7036 21.7552 99.6776L26.642 99.5834C28.0297 99.5567 29.1601 100.009 30.033 100.94C30.9059 101.871 31.3589 103.192 31.3918 104.901C31.4146 106.086 31.1981 107.148 30.7422 108.088L36.3525 107.98L36.3985 110.366ZM28.9017 108.124C29.3676 107.26 29.5903 106.299 29.5699 105.241C29.5495 104.183 29.3095 103.371 28.85 102.804C28.3902 102.229 27.7542 101.949 26.9418 101.965L21.6108 102.068C20.8323 102.083 20.237 102.382 19.825 102.965C19.4128 103.541 19.2148 104.243 19.2307 105.072C19.2466 105.893 19.4293 106.592 19.7791 107.169C20.1286 107.738 20.4405 108.109 20.7147 108.281L28.9017 108.124Z" fill="black"/>
<path d="M32.8765 89.7315C32.5921 91.0641 32.0112 92.0219 31.1339 92.6049C30.2482 93.1861 29.2674 93.3619 28.1914 93.1322C27.5789 93.0015 27.0972 92.7645 26.7464 92.4214C26.03 91.7233 25.5717 89.9985 25.3714 87.247C25.2773 85.6605 25.1051 84.7237 24.8548 84.4366C24.6063 84.1412 24.4019 83.9635 24.2417 83.9033C24.0732 83.8414 23.8027 83.7707 23.4302 83.6912C23.0577 83.6117 22.6609 83.6871 22.2396 83.9174C21.8201 84.1394 21.5026 84.7553 21.287 85.7651C20.9832 87.1888 21.0699 88.1203 21.5473 88.5597C21.7934 88.7853 22.1565 88.9493 22.6366 89.0518L23.2201 89.1763L22.7405 91.4236L22.1445 91.2964C20.8616 91.0226 20.009 90.3949 19.5867 89.4134C19.1662 88.4236 19.1379 87.0762 19.5018 85.3711C19.8657 83.666 20.5145 82.5323 21.448 81.97C22.3732 81.4059 23.5518 81.2766 24.9837 81.5823L30.5956 82.78C31.2826 82.9267 31.7481 82.9352 31.9922 82.8055C32.2279 82.6741 32.4067 82.3228 32.5286 81.7517L34.2582 82.4064L34.1575 82.8782C33.9808 83.7059 33.692 84.289 33.2909 84.6275C32.8815 84.9641 32.3186 85.1685 31.6022 85.2406C32.482 86.1467 32.9509 87.1122 33.0091 88.1372C33.0426 88.6289 32.9984 89.1604 32.8765 89.7315ZM27.0419 87.266C27.1304 88.5138 27.2958 89.4015 27.538 89.9292C27.7819 90.4486 28.2143 90.7745 28.8351 90.907C29.4476 91.0377 29.9553 90.9297 30.3581 90.583C30.7628 90.228 31.0278 89.7567 31.1532 89.169C31.2804 88.573 31.3208 88.0191 31.2742 87.5073C31.2194 86.9936 31.0837 86.5146 30.867 86.0703C30.6437 85.6159 30.35 85.2892 29.9857 85.0903L26.1865 84.2795C26.6618 85.0127 26.9469 86.0082 27.0419 87.266Z" fill="black"/>
<path d="M36.2585 77.2906L23.9266 71.9039L24.882 69.7167L26.6271 70.479C25.989 69.8677 25.7686 68.871 25.9661 67.4888C26.0611 66.7637 26.265 66.0539 26.5776 65.3592L28.4202 66.2472C27.9594 67.302 27.7471 68.3591 27.783 69.4184C27.819 70.4778 28.0852 71.1159 28.5816 71.3327L37.2139 75.1035L36.2585 77.2906Z" fill="black"/>
<path d="M44.3616 62.8255C43.5772 63.9397 42.6672 64.5929 41.6315 64.785C40.5889 64.9722 39.6177 64.7491 38.718 64.1157C38.2059 63.7552 37.8558 63.3483 37.6677 62.895C37.2826 61.9718 37.5376 60.2055 38.4328 57.596C38.9686 56.0997 39.1777 55.1705 39.0601 54.8082C38.9474 54.4391 38.8291 54.1954 38.7053 54.0772C38.5746 53.9541 38.3535 53.7829 38.0421 53.5637C37.7307 53.3445 37.336 53.2581 36.8582 53.3047C36.3852 53.3443 35.8515 53.7863 35.2571 54.6306C34.4191 55.821 34.1335 56.7119 34.4003 57.3033C34.5381 57.6074 34.8078 57.9007 35.2092 58.1833L35.6971 58.5268L34.3743 60.4057L33.876 60.0549C32.8033 59.2998 32.2653 58.388 32.2619 57.3195C32.2634 56.2441 32.7659 54.9935 33.7696 53.5679C34.7732 52.1422 35.8147 51.3539 36.8939 51.2029C37.9663 51.0469 39.1011 51.3904 40.2984 52.2333L44.9906 55.5365C45.565 55.9409 45.9898 56.1313 46.2652 56.1078C46.5336 56.0794 46.8359 55.8264 47.172 55.3489L48.5061 56.6296L48.2284 57.0241C47.7412 57.7161 47.2467 58.1392 46.745 58.2931C46.2364 58.4422 45.6385 58.4094 44.9512 58.1947C45.405 59.3733 45.4576 60.4454 45.109 61.411C44.9469 61.8765 44.6978 62.348 44.3616 62.8255ZM39.9619 58.2688C39.5539 59.4513 39.3577 60.3327 39.3735 60.9131C39.3941 61.4866 39.664 61.956 40.183 62.3214C40.6952 62.6819 41.2045 62.7817 41.7111 62.6208C42.2226 62.453 42.6513 62.1234 42.9972 61.6321C43.3479 61.1338 43.6023 60.6401 43.7603 60.151C43.9114 59.657 43.9745 59.1632 43.9494 58.6694C43.9224 58.1639 43.7803 57.7482 43.5232 57.4223L40.3467 55.1861C40.4962 56.0469 40.368 57.0745 39.9619 58.2688Z" fill="black"/>
<path d="M62.0898 42.6249C63.5671 41.5918 63.9202 40.5238 63.149 39.421C62.8143 38.9424 62.501 38.6348 62.2092 38.4981C61.9125 38.3544 61.4583 38.3622 60.8467 38.5214L57.5484 39.3873C56.5449 39.6656 55.7479 39.7221 55.1572 39.5568C54.5686 39.3797 54.0682 38.9964 53.6559 38.4068C53.2436 37.8173 52.9728 37.3044 52.8433 36.8683C52.709 36.4251 52.6825 35.9737 52.7638 35.5141C52.9265 34.5948 53.7084 33.6452 55.1094 32.6654C56.5104 31.6857 57.8579 31.0428 59.1519 30.737L59.7522 32.5479C59.2966 32.6497 58.7373 32.8394 58.0743 33.1171C57.4065 33.3879 56.8576 33.6737 56.4276 33.9744C55.4357 34.668 54.9196 35.2665 54.8792 35.7699C54.8603 36.0826 54.9867 36.4331 55.2583 36.8215C55.5299 37.2099 55.7864 37.4437 56.0276 37.5228C56.271 37.5902 56.626 37.5588 57.0927 37.4287L60.3962 36.6366C61.5452 36.3598 62.4123 36.337 62.9974 36.5681C63.5776 36.7923 64.1879 37.3622 64.8281 38.2777C65.4684 39.1933 65.6999 40.1519 65.5226 41.1538C65.3405 42.1487 64.6321 43.0778 63.3976 43.9411C62.4959 44.5717 61.6269 45.0348 60.7906 45.3305C59.9543 45.6262 59.2761 45.801 58.756 45.8548L58.2306 44.0844C59.6104 43.9457 60.8968 43.4592 62.0898 42.6249Z" fill="black"/>
<path d="M76.9895 36.6743C75.1713 37.4377 73.6974 37.6113 72.568 37.1951C71.4386 36.7789 70.543 35.7827 69.8812 34.2063L68.0676 29.887C67.5532 28.6619 67.5661 27.5228 68.1062 26.4699C68.6463 25.417 69.7591 24.5367 71.4447 23.829C73.1381 23.118 74.5321 22.9182 75.6267 23.2297C76.7258 23.5301 77.5293 24.2851 78.0371 25.4946L79.2757 28.4444L71.433 31.7372L72.1653 33.4814C72.5978 34.5114 73.1061 35.1425 73.69 35.3747C74.2707 35.599 75.0995 35.4851 76.1764 35.0329C77.2533 34.5808 77.8522 34.3018 77.973 34.196C78.0938 34.0902 78.2152 33.975 78.3373 33.8503C78.4593 33.7256 78.5296 33.6089 78.5482 33.5001C78.5746 33.388 78.5986 33.2265 78.6201 33.0155C78.6462 32.7934 78.5762 32.4189 78.41 31.8921L80.3531 31.0762C80.5864 31.8503 80.7044 32.503 80.7071 33.0342C80.7177 33.5622 80.5813 34.0463 80.298 34.4865C80.0192 34.9157 79.6225 35.2934 79.1077 35.6197C78.6008 35.9427 77.8947 36.2942 76.9895 36.6743ZM70.8089 30.2507L76.5211 27.8523L75.8085 26.155C75.5136 25.4527 75.0685 25.0704 74.4733 25.0082C73.8859 24.9428 73.1279 25.105 72.1992 25.4949C71.2706 25.8848 70.6237 26.3446 70.2586 26.8742C69.9014 27.4006 69.8767 28.0305 70.1847 28.7641L70.8089 30.2507Z" fill="black"/>
<path d="M87.7522 32.9256L85.132 19.7261L87.4731 19.2614L87.8439 21.1292C87.9812 20.2564 88.6736 19.5063 89.9211 18.879C90.5705 18.543 91.2697 18.305 92.0185 18.1649L92.3417 20.1846C91.2127 20.4087 90.2236 20.838 89.3746 21.4725C88.5255 22.107 88.1537 22.6899 88.2591 23.2212L90.0933 32.4609L87.7522 32.9256Z" fill="black"/>
<path d="M114.894 32.0686C112.625 31.7359 111.302 30.7209 110.927 29.0234C110.818 28.5371 110.804 28.0217 110.884 27.4774L112.302 17.8054L114.663 18.1516L113.243 27.8362C113.148 28.4894 113.311 29.0394 113.733 29.4862C114.165 29.9258 114.858 30.2157 115.812 30.3556C116.767 30.4956 117.576 30.3747 118.239 29.9929C118.912 29.604 119.294 29.0996 119.385 28.48L120.768 19.0466L123.129 19.3928L121.177 32.7075L119.067 32.3982L119.061 30.6907C118.134 31.8807 116.745 32.34 114.894 32.0686Z" fill="black"/>
<path d="M138.978 28.6184C139.519 27.4236 138.907 26.4261 137.142 25.6261C136.248 25.2208 135.47 25.1008 134.81 25.2662C134.161 25.4273 133.693 25.8239 133.407 26.4561L129.45 35.1863L127.276 34.2011L132.831 21.9441L135.005 22.9293L134.465 24.1203C135.712 23.5424 137.153 23.6238 138.787 24.3645C140.429 25.1086 141.331 26.1632 141.493 27.5282L141.908 27.3817C143.196 26.8969 144.638 27.0161 146.234 27.7393C148.292 28.6721 149.232 29.9809 149.054 31.6657C149.004 32.1449 148.864 32.6388 148.633 33.1476L144.598 42.0513L142.424 41.0661L146.517 32.0352C147.058 30.8403 146.527 29.8796 144.924 29.1529C143.914 28.6952 143.079 28.5491 142.419 28.7144C141.77 28.8755 141.302 29.2722 141.015 29.9043L137.059 38.6345L134.885 37.6493L138.978 28.6184Z" fill="black"/>
<path d="M159.176 55.9581C157.851 54.4972 157.197 53.1651 157.214 51.9616C157.231 50.758 157.873 49.582 159.139 48.4336L162.609 45.2867C163.594 44.3941 164.672 44.0274 165.845 44.1866C167.017 44.3457 168.218 45.1024 169.446 46.4567C170.679 47.8172 171.331 49.0654 171.402 50.2012C171.484 51.3377 171.039 52.3466 170.067 53.2278L167.698 55.3769L161.984 49.0759L160.582 50.3466C159.755 51.0971 159.329 51.7863 159.304 52.4142C159.286 53.0364 159.669 53.7802 160.453 54.6454C161.238 55.5106 161.7 55.9826 161.84 56.0613C161.98 56.14 162.129 56.2162 162.287 56.2899C162.445 56.3635 162.579 56.391 162.688 56.3723C162.802 56.36 162.962 56.3289 163.169 56.279C163.387 56.2297 163.717 56.0392 164.158 55.7072L165.574 57.2684C164.921 57.7458 164.345 58.0741 163.845 58.2534C163.351 58.4389 162.849 58.4713 162.339 58.3506C161.842 58.2304 161.354 57.9819 160.875 57.6049C160.402 57.2343 159.835 56.6853 159.176 55.9581ZM163.178 47.9929L167.34 52.5822L168.703 51.3456C169.268 50.8339 169.48 50.2871 169.341 49.7051C169.207 49.1293 168.802 48.4684 168.125 47.7223C167.449 46.9762 166.8 46.5191 166.179 46.351C165.564 46.1891 164.962 46.3754 164.372 46.9098L163.178 47.9929Z" fill="black"/>
<path d="M169.644 67.5052C170.546 69.0662 171.579 69.5102 172.744 68.8371C173.25 68.545 173.584 68.2595 173.745 67.9805C173.914 67.6974 173.945 67.2442 173.839 66.6211L173.262 63.2603C173.071 62.2366 173.084 61.4377 173.299 60.8635C173.526 60.2924 173.952 59.8269 174.574 59.4671C175.197 59.1073 175.732 58.8817 176.178 58.7904C176.631 58.6948 177.083 58.7074 177.533 58.8281C178.435 59.0696 179.314 59.9305 180.169 61.4109C181.024 62.8913 181.548 64.2893 181.741 65.6048L179.885 66.0465C179.823 65.5838 179.682 65.0103 179.463 64.3258C179.251 63.6371 179.014 63.0655 178.751 62.6111C178.146 61.5631 177.594 60.9972 177.096 60.9135C176.786 60.8677 176.426 60.9633 176.016 61.2004C175.605 61.4375 175.35 61.6728 175.25 61.9063C175.162 62.1429 175.163 62.4993 175.252 62.9755L175.756 66.3351C175.933 67.5037 175.881 68.3695 175.6 68.9324C175.326 69.4911 174.706 70.0499 173.738 70.6087C172.771 71.1675 171.796 71.3153 170.813 71.0522C169.838 70.7849 168.973 69.999 168.22 68.6945C167.669 67.7417 167.283 66.836 167.061 65.9773C166.838 65.1185 166.723 64.4278 166.714 63.905L168.523 63.5344C168.542 64.9211 168.916 66.2447 169.644 67.5052Z" fill="black"/>
<path d="M168.061 79.4295L185.835 73.8249L186.4 75.6168L185.515 76.1886C185.963 76.4555 186.406 76.875 186.844 77.4469C187.289 78.0163 187.622 78.6481 187.841 79.3422C188.342 80.9324 188.335 82.2613 187.82 83.3289C187.307 84.4047 186.409 85.1449 185.126 85.5496L180.464 87.0194C179.141 87.4369 177.928 87.3221 176.828 86.6751C175.728 86.0282 174.921 84.8894 174.406 83.2589C174.05 82.1289 173.958 81.0487 174.13 80.0182L168.778 81.7057L168.061 79.4295ZM175.886 79.4646C175.683 80.425 175.74 81.4096 176.058 82.4186C176.377 83.4276 176.836 84.139 177.437 84.553C178.04 84.9751 178.729 85.0639 179.504 84.8196L184.59 83.2161C185.332 82.9819 185.819 82.5267 186.049 81.8506C186.282 81.1825 186.274 80.453 186.025 79.662C185.778 78.879 185.405 78.2599 184.907 77.8048C184.411 77.3577 184.007 77.0902 183.695 77.0021L175.886 79.4646Z" fill="black"/>
<path d="M177.378 99.7244C177.228 97.7581 177.529 96.3049 178.281 95.365C179.033 94.4251 180.261 93.8903 181.966 93.7606L186.637 93.4054C187.962 93.3046 189.039 93.6769 189.867 94.5221C190.695 95.3673 191.178 96.7014 191.317 98.5242C191.456 100.356 191.205 101.741 190.564 102.681C189.931 103.629 188.961 104.153 187.653 104.252L184.463 104.495L183.818 96.0134L181.932 96.1569C180.818 96.2416 180.058 96.5243 179.654 97.0049C179.257 97.4849 179.103 98.3072 179.192 99.4718C179.28 100.636 179.356 101.293 179.418 101.441C179.48 101.589 179.551 101.741 179.631 101.896C179.711 102.051 179.799 102.155 179.896 102.207C179.994 102.267 180.14 102.341 180.333 102.428C180.536 102.523 180.913 102.575 181.466 102.584L181.625 104.685C180.817 104.662 180.161 104.567 179.656 104.402C179.152 104.245 178.736 103.963 178.407 103.555C178.088 103.155 177.856 102.659 177.709 102.067C177.562 101.484 177.452 100.703 177.378 99.7244ZM185.426 95.8911L185.895 102.069L187.731 101.929C188.49 101.871 188.994 101.57 189.241 101.025C189.489 100.488 189.574 99.7178 189.498 98.7135C189.422 97.7092 189.19 96.9502 188.803 96.4364C188.416 95.9311 187.827 95.7085 187.033 95.7689L185.426 95.8911Z" fill="black"/>
<path d="M176.61 115.91C177.016 113.189 178.216 111.627 180.21 111.222C180.776 111.101 181.377 111.088 182.013 111.183L187.086 111.94C188.35 112.128 189.287 112.76 189.897 113.835C190.515 114.911 190.702 116.27 190.457 117.91C190.145 120.003 189.478 121.376 188.457 122.028C187.661 122.542 186.577 122.697 185.204 122.492L185.326 120.213C186.515 120.39 187.321 120.292 187.744 119.919C188.175 119.555 188.471 118.834 188.632 117.754C188.793 116.674 188.722 115.859 188.419 115.309C188.116 114.759 187.533 114.42 186.671 114.291L181.46 113.514C180.539 113.376 179.839 113.537 179.36 113.996C178.881 114.455 178.561 115.225 178.4 116.305C178.238 117.393 178.272 118.138 178.503 118.541C178.732 118.952 179.343 119.274 180.335 119.507L180.01 121.692C178.489 121.328 177.476 120.724 176.968 119.878C176.461 119.032 176.342 117.709 176.61 115.91Z" fill="black"/>
<path d="M174.07 127.492L186.789 131.888L186.009 134.144L173.291 129.748L174.07 127.492ZM189.081 132.681L191.42 133.489L190.641 135.745L188.301 134.936L189.081 132.681Z" fill="black"/>
<path d="M168.255 139.999C168.929 138.815 169.773 138.078 170.785 137.787C171.805 137.501 172.793 137.63 173.749 138.175C174.294 138.485 174.681 138.856 174.912 139.289C175.383 140.172 175.298 141.954 174.657 144.637C174.267 146.178 174.148 147.123 174.299 147.472C174.447 147.829 174.588 148.06 174.722 148.166C174.864 148.276 175.101 148.425 175.432 148.614C175.763 148.802 176.164 148.85 176.635 148.758C177.102 148.674 177.591 148.183 178.102 147.285C178.822 146.02 179.021 145.106 178.699 144.543C178.533 144.253 178.236 143.987 177.81 143.744L177.291 143.449L178.428 141.452L178.958 141.754C180.098 142.403 180.72 143.259 180.826 144.322C180.928 145.393 180.547 146.686 179.684 148.201C178.822 149.716 177.86 150.6 176.801 150.854C175.748 151.112 174.586 150.878 173.313 150.154L168.326 147.315C167.716 146.967 167.275 146.818 167.003 146.868C166.739 146.922 166.462 147.203 166.173 147.71L164.722 146.563L164.961 146.144C165.38 145.408 165.832 144.94 166.316 144.739C166.808 144.542 167.407 144.517 168.111 144.665C167.547 143.535 167.392 142.473 167.646 141.479C167.763 141 167.966 140.507 168.255 139.999ZM173.071 144.114C173.364 142.898 173.475 142.002 173.403 141.425C173.328 140.857 173.014 140.415 172.463 140.101C171.918 139.791 171.402 139.741 170.913 139.949C170.42 140.165 170.025 140.534 169.727 141.057C169.426 141.586 169.22 142.102 169.109 142.604C169.006 143.11 168.991 143.608 169.063 144.097C169.138 144.597 169.32 144.997 169.607 145.297L172.983 147.219C172.751 146.377 172.781 145.342 173.071 144.114Z" fill="black"/>
<path d="M158.297 154.115C158.809 153.517 159.272 153.067 159.687 152.764C160.101 152.462 160.558 152.274 161.056 152.199C161.988 152.061 163.18 152.613 164.633 153.857L175.696 163.326L174.144 165.139L163.062 155.654C162.239 154.949 161.598 154.612 161.138 154.642C160.678 154.671 160.121 155.069 159.466 155.834L159.193 156.152L157.851 154.636L158.297 154.115Z" fill="black"/>
<path d="M153.042 159.333L161.831 169.523L160.024 171.082L151.235 160.892L153.042 159.333ZM163.415 171.359L165.032 173.234L163.224 174.793L161.607 172.918L163.415 171.359Z" fill="black"/>
<path d="M142.265 169.033C140.717 169.957 140.288 170.997 140.978 172.153C141.277 172.654 141.568 172.984 141.849 173.141C142.134 173.306 142.588 173.331 143.209 173.216L146.562 172.59C147.582 172.385 148.381 172.386 148.959 172.593C149.533 172.812 150.004 173.231 150.373 173.848C150.742 174.466 150.975 174.997 151.073 175.442C151.175 175.893 151.169 176.345 151.054 176.798C150.826 177.703 149.978 178.594 148.51 179.47C147.042 180.346 145.651 180.89 144.339 181.102L143.871 179.253C144.332 179.184 144.904 179.035 145.585 178.806C146.271 178.584 146.839 178.339 147.289 178.07C148.329 177.449 148.886 176.89 148.963 176.39C149.004 176.08 148.904 175.721 148.661 175.314C148.418 174.907 148.179 174.656 147.944 174.559C147.706 174.474 147.35 174.48 146.875 174.576L143.523 175.128C142.357 175.322 141.49 175.282 140.924 175.009C140.361 174.744 139.793 174.131 139.221 173.172C138.648 172.213 138.486 171.24 138.735 170.253C138.989 169.274 139.762 168.399 141.056 167.626C142.001 167.062 142.901 166.663 143.756 166.429C144.612 166.194 145.301 166.068 145.823 166.052L146.22 167.856C144.833 167.895 143.515 168.287 142.265 169.033Z" fill="black"/>
<path d="M125.896 174.516C127.662 173.875 129.04 173.691 130.03 173.962C131.011 174.237 131.749 175.054 132.242 176.415L134.903 183.755L137.016 182.989L137.63 184.684L135.434 185.48L136.578 189.494L134.693 190.178L133.274 186.263L130.099 187.414L129.484 185.719L132.659 184.568L130.05 177.371C129.762 176.576 129.343 176.129 128.794 176.031C128.241 175.943 127.395 176.106 126.257 176.518L126.006 176.609L125.561 174.637L125.896 174.516Z" fill="black"/>
<path d="M115.71 176.577C117.058 176.378 118.158 176.588 119.011 177.207C119.864 177.834 120.371 178.692 120.532 179.78C120.623 180.4 120.569 180.934 120.37 181.382C119.966 182.297 118.509 183.329 116.001 184.477C114.547 185.119 113.729 185.607 113.547 185.942C113.357 186.278 113.262 186.531 113.261 186.702C113.262 186.882 113.29 187.16 113.346 187.537C113.401 187.914 113.61 188.259 113.973 188.574C114.328 188.889 115.016 188.972 116.037 188.822C117.477 188.609 118.32 188.203 118.565 187.602C118.691 187.293 118.718 186.895 118.646 186.41L118.559 185.82L120.833 185.485L120.922 186.088C121.113 187.385 120.822 188.404 120.05 189.142C119.269 189.881 118.016 190.378 116.291 190.632C114.566 190.886 113.277 190.674 112.425 189.995C111.573 189.325 111.041 188.266 110.827 186.817L109.991 181.14C109.889 180.445 109.734 180.006 109.528 179.822C109.322 179.647 108.931 179.602 108.353 179.687L108.363 177.838L108.84 177.768C109.678 177.644 110.325 177.712 110.782 177.969C111.24 178.236 111.628 178.692 111.946 179.338C112.488 178.197 113.229 177.421 114.169 177.009C114.618 176.806 115.132 176.662 115.71 176.577ZM115.435 182.905C116.574 182.386 117.348 181.922 117.758 181.51C118.16 181.101 118.314 180.582 118.222 179.954C118.13 179.334 117.852 178.896 117.387 178.639C116.913 178.384 116.378 178.3 115.784 178.388C115.181 178.477 114.648 178.632 114.184 178.854C113.722 179.085 113.321 179.379 112.98 179.737C112.632 180.105 112.428 180.494 112.369 180.905L112.935 184.749C113.456 184.047 114.29 183.433 115.435 182.905Z" fill="black"/>
</svg>
