<svg width="213" height="212" viewBox="0 0 213 212" fill="none" xmlns="http://www.w3.org/2000/svg">
<path d="M93.4544 180.414L89.115 198.251L77.976 195.542L78.4262 193.691L87.0857 195.798L88.5142 189.926L80.8662 188.066L81.3163 186.215L88.9643 188.076L90.5248 181.661L81.7173 179.519L82.1674 177.668L93.4544 180.414Z" fill="black"/>
<path d="M61.8739 178.855C61.2305 179.998 61.7828 181.061 63.5308 182.045C64.3938 182.531 65.1761 182.728 65.8778 182.638C66.5796 182.547 67.0985 182.203 67.4348 181.606L72.1359 173.253L74.2158 174.423L67.6156 186.151L65.5357 184.98L66.177 183.84C64.8846 184.308 63.4713 184.109 61.9372 183.246C59.9458 182.125 59.0789 180.715 59.3366 179.014C59.4132 178.533 59.5885 178.049 59.8625 177.562L64.657 169.043L66.737 170.214L61.8739 178.855Z" fill="black"/>
<path d="M54.3713 160.638L48.6154 173.874L46.9098 172.187L51.7101 161.577L41.4681 166.802L39.8076 165.159L52.6567 158.942L54.3713 160.638Z" fill="black"/>
<path d="M43.9029 148.26L32.613 155.583L31.3141 153.581L42.604 146.258L43.9029 148.26ZM30.5787 156.903L28.5018 158.25L27.2029 156.248L29.2798 154.901L30.5787 156.903Z" fill="black"/>
<path d="M36.1478 132.629C36.8427 134.474 36.9612 135.953 36.5031 137.066C36.045 138.18 35.016 139.037 33.416 139.64L29.032 141.291C27.7885 141.759 26.6507 141.704 25.6187 141.125C24.5867 140.546 23.7486 139.401 23.1043 137.69C22.4571 135.971 22.3095 134.571 22.6617 133.488C23.0029 132.401 23.7873 131.626 25.015 131.164L28.009 130.037L31.0066 137.997L32.7769 137.33C33.8224 136.936 34.472 136.452 34.7258 135.877C34.9717 135.305 34.8888 134.473 34.4772 133.38C34.0656 132.287 33.8092 131.678 33.7079 131.553C33.6067 131.429 33.4961 131.303 33.3761 131.176C33.256 131.05 33.142 130.975 33.034 130.952C32.923 130.922 32.7625 130.892 32.5525 130.862C32.3315 130.828 31.9547 130.884 31.4219 131.03L30.6792 129.058C31.4615 128.854 32.1182 128.761 32.6491 128.778C33.1771 128.787 33.6558 128.941 34.0851 129.241C34.5036 129.535 34.8662 129.946 35.173 130.473C35.4768 130.991 35.8018 131.71 36.1478 132.629ZM29.4978 138.565L27.3144 132.767L25.5917 133.416C24.8788 133.684 24.4802 134.115 24.3959 134.707C24.3085 135.292 24.4423 136.055 24.7973 136.998C25.1522 137.941 25.5875 138.604 26.1031 138.989C26.6158 139.365 27.2444 139.414 27.9889 139.133L29.4978 138.565Z" fill="black"/>
<path d="M25.8019 119.784L23.9348 119.994L22.9393 111.163L24.8064 110.953L25.8019 119.784Z" fill="black"/>
<path d="M22.4227 91.3076C21.1241 91.1217 20.3327 92.0216 20.0485 94.0072C19.9082 94.9875 20.0073 95.7882 20.3459 96.4095C20.6845 97.0308 21.1931 97.39 21.8717 97.4871L31.36 98.8451L31.0219 101.208L17.7006 99.3012L18.0387 96.9386L19.3331 97.1238C18.4297 96.0882 18.1027 94.6991 18.3521 92.9565C18.6759 90.6944 19.6768 89.3756 21.355 89.0002C21.8314 88.8974 22.3461 88.8856 22.8991 88.9647L32.5758 90.3496L32.2377 92.7123L22.4227 91.3076Z" fill="black"/>
<path d="M32.502 77.8258C33.8762 78.4224 34.9862 77.7464 35.8323 75.7978C36.6783 73.8492 36.4143 72.5766 35.0401 71.9799L29.6951 69.6592C28.3132 69.0593 27.1992 69.7336 26.3532 71.6822C25.5071 73.6308 25.7751 74.9051 27.1569 75.5051L32.502 77.8258ZM35.8044 69.7098C37.0154 70.2356 37.7939 71.0672 38.1397 72.2046C38.4811 73.3309 38.2692 74.7752 37.5041 76.5375C36.739 78.2998 35.8284 79.4407 34.7724 79.9603C33.7198 80.4721 32.584 80.4634 31.3652 79.9342L26.3927 77.7752C25.1739 77.2461 24.3921 76.4222 24.0473 75.3037C23.6981 74.174 23.9061 72.7281 24.6712 70.9658C25.4364 69.2035 26.3508 68.0642 27.4146 67.5481C28.4817 67.0241 29.6208 67.025 30.8319 67.5509L35.8044 69.7098Z" fill="black"/>
<path d="M45.4137 59.5378C46.5154 58.1109 46.5337 56.9863 45.4686 56.1638C45.0063 55.8069 44.6155 55.6068 44.2962 55.5634C43.9702 55.5148 43.539 55.6577 43.0028 55.9922L40.1131 57.8029C39.2384 58.3679 38.4945 58.6596 37.8814 58.6781C37.2668 58.6848 36.6748 58.4682 36.1054 58.0286C35.536 57.5889 35.1244 57.1803 34.8707 56.8026C34.6103 56.4197 34.4503 55.9968 34.3908 55.5338C34.2717 54.6078 34.7346 53.4682 35.7794 52.115C36.8242 50.7618 37.9185 49.7462 39.0623 49.0681L40.1756 50.6175C39.7711 50.8505 39.294 51.1985 38.7441 51.6614C38.1875 52.1191 37.7488 52.5557 37.4281 52.971C36.6885 53.929 36.3744 54.6542 36.486 55.1467C36.5613 55.4508 36.7866 55.7477 37.1617 56.0373C37.5369 56.327 37.8514 56.4736 38.1053 56.4771C38.3576 56.4688 38.6871 56.3329 39.0937 56.0695L42.0104 54.3277C43.0244 53.7206 43.8452 53.4401 44.4726 53.4862C45.0933 53.527 45.8458 53.8888 46.7301 54.5716C47.6143 55.2544 48.1213 56.1003 48.2511 57.1094C48.3742 58.1133 47.9753 59.2114 47.0547 60.4039C46.3822 61.2747 45.691 61.9761 44.981 62.5078C44.271 63.0396 43.6759 63.4088 43.1956 63.6154L42.1658 62.0824C43.4414 61.5383 44.524 60.6901 45.4137 59.5378Z" fill="black"/>
<path d="M74.6519 43.825L71.8709 38.7621C71.6756 39.1977 71.3456 39.6253 70.8808 40.0448C70.42 40.4717 69.9522 40.8155 69.4775 41.0763C67.9865 41.8953 66.6422 42.1992 65.4446 41.988C64.243 41.7693 63.3264 41.0851 62.6948 39.9353L60.1643 35.3286C59.4961 34.1121 59.3599 32.9412 59.7558 31.8161C60.1516 30.6909 61.0988 29.7168 62.5972 28.8937C63.1833 28.5718 63.8497 28.3699 64.5965 28.2879C65.3393 28.1986 65.8734 28.248 66.1988 28.4362L65.6793 27.4904L67.7712 26.3413L76.7438 42.6759L74.6519 43.825ZM68.7309 39.4006C69.4207 39.0217 69.9608 38.5898 70.3512 38.105C70.7449 37.6087 70.9377 37.2566 70.9296 37.0486L67.2073 30.2722C67.0036 29.9013 66.598 29.6991 65.9907 29.6658C65.3834 29.6325 64.6494 29.8522 63.7889 30.3248C62.9284 30.7975 62.3417 31.3467 62.0288 31.9725C61.7159 32.5982 61.751 33.2597 62.134 33.957L64.97 39.12C65.6302 40.3217 66.8838 40.4153 68.7309 39.4006Z" fill="black"/>
<path d="M88.0845 33.6884C85.8504 34.2075 84.2485 33.7456 83.2789 32.3026C83.0004 31.8894 82.7989 31.4149 82.6744 30.879L80.4618 21.3573L82.7866 20.8171L85.0021 30.3512C85.1515 30.9942 85.5043 31.4466 86.0604 31.7084C86.6228 31.96 87.3739 31.9766 88.3137 31.7582C89.2535 31.5399 89.9624 31.1318 90.4405 30.5342C90.9248 29.9263 91.0962 29.3174 90.9544 28.7073L88.7964 19.4206L91.1212 18.8804L94.1671 31.9882L92.0896 32.4709L91.4601 30.8837C91.0316 32.3301 89.9064 33.265 88.0845 33.6884Z" fill="black"/>
<path d="M107.516 31.4893C106.155 31.436 105.112 31.0267 104.388 30.2615C103.665 29.4878 103.324 28.5512 103.367 27.4518C103.392 26.826 103.543 26.311 103.822 25.9069C104.388 25.082 106.009 24.3367 108.686 23.6707C110.234 23.3078 111.127 22.9786 111.368 22.6831C111.616 22.3879 111.757 22.1562 111.789 21.9881C111.821 21.8115 111.845 21.5329 111.86 21.1523C111.875 20.7718 111.733 20.3935 111.434 20.0176C111.144 19.6421 110.483 19.4341 109.451 19.3937C107.996 19.3367 107.093 19.5808 106.742 20.1261C106.561 20.407 106.461 20.7927 106.442 21.2832L106.419 21.8794L104.123 21.7895L104.147 21.1806C104.198 19.8698 104.671 18.9227 105.566 18.3395C106.47 17.7566 107.793 17.4992 109.535 17.5674C111.277 17.6357 112.505 18.0818 113.218 18.9059C113.932 19.7216 114.26 20.8609 114.202 22.324L113.978 28.0579C113.95 28.7598 114.021 29.22 114.191 29.4384C114.36 29.6483 114.737 29.7647 115.32 29.7875L114.97 31.6033L114.488 31.5845C113.642 31.5513 113.018 31.366 112.616 31.0284C112.215 30.6823 111.918 30.1625 111.725 29.4689C110.982 30.49 110.11 31.1166 109.11 31.3485C108.631 31.4652 108.1 31.5122 107.516 31.4893ZM108.952 25.3201C107.738 25.6198 106.891 25.9339 106.412 26.2624C105.942 26.5913 105.695 27.0729 105.67 27.7071C105.645 28.333 105.838 28.8148 106.248 29.1528C106.667 29.491 107.177 29.6719 107.777 29.6954C108.386 29.7193 108.939 29.6647 109.435 29.5317C109.932 29.3902 110.381 29.1748 110.782 28.8856C111.192 28.5883 111.463 28.2432 111.597 27.8503L111.749 23.9685C111.108 24.5617 110.175 25.0122 108.952 25.3201Z" fill="black"/>
<path d="M127.598 34.4257C126.837 34.2226 126.231 33.9995 125.779 33.7562C125.327 33.5128 124.96 33.1826 124.677 32.7655C124.15 31.9851 124.133 30.6709 124.626 28.8229L128.383 14.7543L130.689 15.3701L126.926 29.4632C126.646 30.5099 126.619 31.2341 126.845 31.636C127.07 32.0379 127.67 32.3687 128.643 32.6286L129.047 32.7367L128.26 34.6026L127.598 34.4257Z" fill="black"/>
<path d="M141.14 45.757L143.855 40.6583C143.383 40.7333 142.845 40.6911 142.239 40.5317C141.63 40.3798 141.086 40.1765 140.608 39.922C139.106 39.1225 138.116 38.1638 137.638 37.0459C137.163 35.9206 137.234 34.779 137.85 33.621L140.32 28.9818C140.973 27.7566 141.878 27.0017 143.036 26.7171C144.195 26.4326 145.528 26.692 147.037 27.4955C147.628 27.8097 148.161 28.2569 148.639 28.8371C149.12 29.4098 149.371 29.8838 149.392 30.2592L149.899 29.3067L152.005 30.4284L143.247 46.8786L141.14 45.757ZM141.602 38.3799C142.296 38.7498 142.953 38.9654 143.573 39.0267C144.204 39.0846 144.604 39.0532 144.774 38.9326L148.407 32.1082C148.606 31.7346 148.553 31.2846 148.249 30.7581C147.944 30.2316 147.359 29.7376 146.492 29.2762C145.625 28.8148 144.845 28.6244 144.15 28.705C143.455 28.7857 142.92 29.1771 142.546 29.8794L139.778 35.0789C139.134 36.2891 139.741 37.3895 141.602 38.3799Z" fill="black"/>
<path d="M156.976 51.4496C155.319 49.8641 154.829 48.2707 155.505 46.6694C155.699 46.2102 155.986 45.7818 156.366 45.3843L163.123 38.3206L164.848 39.9705L158.082 47.0433C157.625 47.5203 157.44 48.0632 157.525 48.6719C157.622 49.2803 158.02 49.918 158.717 50.585C159.414 51.252 160.144 51.6219 160.905 51.6948C161.679 51.7675 162.283 51.5775 162.716 51.1249L169.306 44.2356L171.031 45.8855L161.728 55.6094L160.187 54.1351L161.171 52.7395C159.726 53.1726 158.328 52.7426 156.976 51.4496Z" fill="black"/>
<path d="M170.223 67.7932C169.209 66.1019 168.828 64.6677 169.079 63.4906C169.331 62.3136 170.19 61.2855 171.656 60.4064L175.674 57.9975C176.814 57.3143 177.943 57.1651 179.062 57.5501C180.181 57.9352 181.21 58.9116 182.15 60.4795C183.095 62.0547 183.491 63.4062 183.338 64.5339C183.197 65.6646 182.563 66.5672 181.438 67.2418L178.694 68.8868L174.321 61.5917L172.698 62.5644C171.74 63.1388 171.188 63.7316 171.041 64.3426C170.901 64.9493 171.132 65.7535 171.732 66.7552C172.333 67.7569 172.694 68.3101 172.816 68.4146C172.938 68.5192 173.069 68.623 173.21 68.7261C173.351 68.8292 173.476 68.8822 173.587 68.8851C173.701 68.8953 173.865 68.8961 174.077 68.8875C174.3 68.8818 174.661 68.7592 175.159 68.5199L176.242 70.3274C175.509 70.6682 174.88 70.8777 174.355 70.9559C173.833 71.0414 173.335 70.9752 172.859 70.7573C172.394 70.5423 171.964 70.2033 171.568 69.7401C171.176 69.2842 170.728 68.6353 170.223 67.7932ZM175.703 60.7626L178.889 66.0761L180.468 65.1295C181.121 64.7379 181.436 64.243 181.413 63.645C181.395 63.0542 181.126 62.3269 180.609 61.4631C180.091 60.5993 179.544 60.0244 178.967 59.7382C178.396 59.4594 177.769 59.5245 177.086 59.9336L175.703 60.7626Z" fill="black"/>
<path d="M176.744 80.7114L189.579 76.6673L190.296 78.9437L188.48 79.516C189.362 79.5573 190.183 80.1638 190.943 81.3354C191.348 81.9443 191.661 82.6133 191.882 83.3424L189.909 83.884C189.563 82.7861 189.029 81.8498 188.305 81.075C187.582 80.3002 186.962 79.9941 186.445 80.1569L177.461 82.9878L176.744 80.7114Z" fill="black"/>
<path d="M194.532 113.979C194.432 115.058 194.171 116.032 193.75 116.902L199.641 117.45L199.42 119.826L180.383 118.057L180.533 116.439L181.454 116.129C181.173 115.686 180.949 115.117 180.784 114.422C180.619 113.727 180.568 113.051 180.629 112.393C180.799 110.564 181.328 109.258 182.217 108.474C183.114 107.698 184.253 107.375 185.635 107.504L190.691 107.974C192.082 108.103 193.114 108.662 193.787 109.651C194.46 110.64 194.708 112.083 194.532 113.979ZM185.237 109.864C184.437 109.789 183.799 110.015 183.325 110.54C182.851 111.074 182.578 111.724 182.507 112.491C182.38 113.856 182.542 114.994 182.993 115.902L191.879 116.729C192.321 115.996 192.593 115.082 192.695 113.987C192.906 111.72 192.253 110.516 190.736 110.375L185.237 109.864Z" fill="black"/>
<path d="M176.312 132.007C177.135 129.866 178.415 128.798 180.153 128.804C180.652 128.805 181.158 128.904 181.671 129.101L190.797 132.606L189.941 134.834L180.804 131.325C180.187 131.088 179.615 131.127 179.087 131.441C178.563 131.765 178.128 132.378 177.782 133.279C177.436 134.179 177.377 134.995 177.604 135.726C177.836 136.468 178.244 136.951 178.829 137.176L187.729 140.594L186.873 142.822L174.311 137.997L175.076 136.006L176.743 136.375C175.785 135.209 175.642 133.753 176.312 132.007Z" fill="black"/>
<path d="M167.436 149.538L181.369 153.308L179.947 155.241L168.752 152.035L175.411 161.408L174.027 163.29L166.007 151.481L167.436 149.538Z" fill="black"/>
<path d="M156.712 161.695L165.599 171.8L163.807 173.377L154.92 163.272L156.712 161.695ZM167.201 173.621L168.835 175.48L167.043 177.056L165.408 175.197L167.201 173.621Z" fill="black"/>
<path d="M149.066 183.93C148.115 184.448 147.161 184.776 146.204 184.913L149.038 190.106L146.943 191.249L137.784 174.467L139.21 173.688L139.981 174.28C140.191 173.799 140.539 173.296 141.024 172.771C141.508 172.246 142.041 171.825 142.62 171.509C144.232 170.629 145.612 170.339 146.759 170.639C147.902 170.95 148.807 171.715 149.472 172.933L151.904 177.391C152.573 178.617 152.685 179.785 152.241 180.895C151.796 182.006 150.737 183.017 149.066 183.93ZM147.291 173.921C146.906 173.215 146.363 172.812 145.663 172.712C144.955 172.616 144.263 172.753 143.587 173.122C142.384 173.779 141.531 174.548 141.028 175.43L145.304 183.264C146.158 183.222 147.068 182.937 148.034 182.41C150.033 181.319 150.667 180.105 149.937 178.768L147.291 173.921Z" fill="black"/>
<path d="M124.789 178.67C126.115 178.357 127.229 178.472 128.132 179.015C129.036 179.567 129.615 180.378 129.868 181.449C130.012 182.058 130.004 182.595 129.844 183.059C129.52 184.005 128.157 185.158 125.756 186.517C124.363 187.281 123.59 187.838 123.438 188.187C123.277 188.538 123.204 188.798 123.218 188.969C123.235 189.148 123.286 189.423 123.374 189.793C123.462 190.164 123.7 190.49 124.088 190.772C124.468 191.056 125.161 191.08 126.166 190.842C127.583 190.507 128.387 190.03 128.58 189.411C128.678 189.092 128.671 188.693 128.558 188.216L128.421 187.635L130.657 187.106L130.798 187.699C131.099 188.976 130.897 190.015 130.191 190.817C129.476 191.621 128.271 192.223 126.574 192.624C124.877 193.025 123.575 192.924 122.667 192.321C121.761 191.727 121.14 190.717 120.803 189.292L119.483 183.708C119.321 183.024 119.13 182.6 118.908 182.435C118.689 182.278 118.295 182.267 117.726 182.401L117.577 180.558L118.047 180.447C118.871 180.252 119.521 180.263 119.999 180.481C120.478 180.707 120.904 181.128 121.276 181.745C121.718 180.562 122.39 179.725 123.291 179.233C123.721 178.992 124.221 178.805 124.789 178.67ZM125.059 184.999C126.148 184.385 126.88 183.855 127.253 183.41C127.618 182.968 127.727 182.437 127.581 181.82C127.437 181.21 127.122 180.797 126.637 180.582C126.142 180.368 125.603 180.33 125.018 180.469C124.425 180.609 123.907 180.81 123.465 181.071C123.024 181.34 122.649 181.668 122.34 182.054C122.025 182.45 121.856 182.855 121.832 183.27L122.726 187.05C123.185 186.307 123.962 185.623 125.059 184.999Z" fill="black"/>
</svg>
